<svg width="465" height="169" viewBox="0 0 465 169" fill="none" xmlns="http://www.w3.org/2000/svg">
<path d="M442.5 41.25C452.855 41.25 461.25 32.8553 461.25 22.5C461.25 12.1447 452.855 3.75 442.5 3.75C432.145 3.75 423.75 12.1447 423.75 22.5C423.75 32.8553 432.145 41.25 442.5 41.25Z" fill="white"/>
<path d="M447.75 17.25C447.75 18.6424 447.157 19.9777 446.102 20.9623C445.048 21.9469 443.617 22.5 442.125 22.5C440.633 22.5 439.202 21.9469 438.148 20.9623C437.093 19.9777 436.5 18.6424 436.5 17.25C436.5 15.8576 437.093 14.5223 438.148 13.5377C439.202 12.5531 440.633 12 442.125 12C443.617 12 445.048 12.5531 446.102 13.5377C447.157 14.5223 447.75 15.8576 447.75 17.25Z" fill="#292929"/>
<path d="M449.731 33.75H434.523C433.635 33.75 433.165 31.8551 433.777 31.1956C435.598 29.2346 438.936 26.25 442.393 26.25C445.882 26.25 448.923 29.2941 450.518 31.2529C451.064 31.9235 450.583 33.75 449.731 33.75Z" fill="#292929"/>
<path d="M1 168.25H408.5C409.052 168.25 409.5 167.802 409.5 167.25V28.8709C409.5 28.6316 409.586 28.4002 409.742 28.2188L418.829 17.652C419.387 17.0037 418.926 16 418.071 16H389.75H1C0.447715 16 0 16.4477 0 17V167.25C0 167.802 0.447715 168.25 1 168.25Z" fill="#F05025"/>
<path d="M20.3711 48.9121C20.5879 49.1699 20.7959 49.3574 20.9951 49.4746C21.1943 49.5918 21.4053 49.6504 21.6279 49.6504C22.0381 49.6504 22.3252 49.5156 22.4893 49.2461C22.6592 48.9766 22.7441 48.4756 22.7441 47.7432V38.3828H24.8184V48.4199C24.8184 49.5098 24.5781 50.3125 24.0977 50.8281C23.6172 51.3379 22.8672 51.5928 21.8477 51.5928C21.2852 51.5928 20.7754 51.4844 20.3184 51.2676C19.8672 51.0508 19.4395 50.7139 19.0352 50.2568L20.3711 48.9121ZM33.9678 47.1104C33.9678 46.3369 33.7188 45.6836 33.2207 45.1504C32.7227 44.6113 32.1133 44.3418 31.3926 44.3418C30.6777 44.3418 30.0684 44.6113 29.5645 45.1504C29.0664 45.6836 28.8174 46.3369 28.8174 47.1104C28.8174 47.8838 29.0664 48.54 29.5645 49.0791C30.0684 49.6123 30.6777 49.8789 31.3926 49.8789C32.1074 49.8789 32.7139 49.6123 33.2119 49.0791C33.7158 48.54 33.9678 47.8838 33.9678 47.1104ZM26.8047 47.0928C26.8047 46.4834 26.9189 45.9092 27.1475 45.3701C27.3818 44.8252 27.7158 44.3418 28.1494 43.9199C28.5771 43.5039 29.0693 43.1846 29.626 42.9619C30.1826 42.7393 30.7656 42.6279 31.375 42.6279C32.002 42.6279 32.5908 42.7393 33.1416 42.9619C33.6982 43.1846 34.1963 43.5127 34.6357 43.9463C35.0752 44.374 35.4092 44.8574 35.6377 45.3965C35.8662 45.9355 35.9805 46.501 35.9805 47.0928C35.9805 47.708 35.8662 48.2852 35.6377 48.8242C35.415 49.3633 35.0869 49.8408 34.6533 50.2568C34.1963 50.6963 33.6895 51.0273 33.1328 51.25C32.5762 51.4785 31.9902 51.5928 31.375 51.5928C30.7715 51.5928 30.1914 51.4785 29.6348 51.25C29.0781 51.0273 28.583 50.7021 28.1494 50.2744C27.71 49.8408 27.376 49.3545 27.1475 48.8154C26.9189 48.2764 26.8047 47.7021 26.8047 47.0928ZM38.002 51.25V37.627H39.7949V44.2803C40.1758 43.7061 40.624 43.2871 41.1396 43.0234C41.6553 42.7598 42.2822 42.6279 43.0205 42.6279C43.6416 42.6279 44.1689 42.7275 44.6025 42.9268C45.042 43.1201 45.3848 43.4102 45.6309 43.7969C45.7773 44.0254 45.8828 44.292 45.9473 44.5967C46.0117 44.9014 46.0439 45.4346 46.0439 46.1963V51.25H44.1191V46.9697C44.1191 45.874 43.9844 45.1475 43.7148 44.79C43.4512 44.4268 42.9795 44.2451 42.2998 44.2451C41.8545 44.2451 41.4561 44.3271 41.1045 44.4912C40.7588 44.6553 40.4863 44.8867 40.2871 45.1855C40.1465 45.3848 40.0469 45.6426 39.9883 45.959C39.9355 46.2695 39.9092 46.7676 39.9092 47.4531V51.25H38.002ZM48.584 51.25V42.918H50.377V44.2803C50.7578 43.7061 51.2061 43.2871 51.7217 43.0234C52.2373 42.7598 52.8643 42.6279 53.6025 42.6279C54.2236 42.6279 54.751 42.7275 55.1846 42.9268C55.624 43.1201 55.9668 43.4102 56.2129 43.7969C56.3594 44.0254 56.4648 44.292 56.5293 44.5967C56.5938 44.9014 56.626 45.4346 56.626 46.1963V51.25H54.7012V46.9697C54.7012 45.874 54.5664 45.1475 54.2969 44.79C54.0332 44.4268 53.5615 44.2451 52.8818 44.2451C52.4365 44.2451 52.0381 44.3271 51.6865 44.4912C51.3408 44.6553 51.0684 44.8867 50.8691 45.1855C50.7285 45.3848 50.6289 45.6426 50.5703 45.959C50.5176 46.2695 50.4912 46.7676 50.4912 47.4531V51.25H48.584ZM66.8477 49.3604H68.6055C69.5723 49.3604 70.2959 49.2959 70.7764 49.167C71.2627 49.0381 71.6846 48.8213 72.042 48.5166C72.5283 48.1006 72.8916 47.585 73.1318 46.9697C73.3779 46.3486 73.501 45.6279 73.501 44.8076C73.501 43.9873 73.3779 43.2695 73.1318 42.6543C72.8916 42.0332 72.5283 41.5146 72.042 41.0986C71.6787 40.7939 71.2422 40.5771 70.7324 40.4482C70.2285 40.3193 69.4375 40.2549 68.3594 40.2549H67.6035H66.8477V49.3604ZM64.7559 51.25V38.3828H67.5771C69.4111 38.3828 70.7002 38.4766 71.4443 38.6641C72.1943 38.8457 72.8506 39.1533 73.4131 39.5869C74.1572 40.1553 74.7197 40.8848 75.1006 41.7754C75.4873 42.666 75.6807 43.6826 75.6807 44.8252C75.6807 45.9678 75.4873 46.9814 75.1006 47.8662C74.7197 48.7451 74.1572 49.4717 73.4131 50.0459C72.8506 50.4795 72.209 50.79 71.4883 50.9775C70.7734 51.1592 69.6572 51.25 68.1396 51.25H67.5771H64.7559ZM84.4697 47.1104C84.4697 46.3369 84.2207 45.6836 83.7227 45.1504C83.2246 44.6113 82.6152 44.3418 81.8945 44.3418C81.1797 44.3418 80.5703 44.6113 80.0664 45.1504C79.5684 45.6836 79.3193 46.3369 79.3193 47.1104C79.3193 47.8838 79.5684 48.54 80.0664 49.0791C80.5703 49.6123 81.1797 49.8789 81.8945 49.8789C82.6094 49.8789 83.2158 49.6123 83.7139 49.0791C84.2178 48.54 84.4697 47.8838 84.4697 47.1104ZM77.3066 47.0928C77.3066 46.4834 77.4209 45.9092 77.6494 45.3701C77.8838 44.8252 78.2178 44.3418 78.6514 43.9199C79.0791 43.5039 79.5713 43.1846 80.1279 42.9619C80.6846 42.7393 81.2676 42.6279 81.877 42.6279C82.5039 42.6279 83.0928 42.7393 83.6436 42.9619C84.2002 43.1846 84.6982 43.5127 85.1377 43.9463C85.5771 44.374 85.9111 44.8574 86.1396 45.3965C86.3682 45.9355 86.4824 46.501 86.4824 47.0928C86.4824 47.708 86.3682 48.2852 86.1396 48.8242C85.917 49.3633 85.5889 49.8408 85.1553 50.2568C84.6982 50.6963 84.1914 51.0273 83.6348 51.25C83.0781 51.4785 82.4922 51.5928 81.877 51.5928C81.2734 51.5928 80.6934 51.4785 80.1367 51.25C79.5801 51.0273 79.085 50.7021 78.6514 50.2744C78.2119 49.8408 77.8779 49.3545 77.6494 48.8154C77.4209 48.2764 77.3066 47.7021 77.3066 47.0928ZM96.5283 47.3652H89.8662C89.9131 48.1445 90.1445 48.7539 90.5605 49.1934C90.9766 49.627 91.5303 49.8438 92.2217 49.8438C92.8369 49.8438 93.3496 49.7148 93.7598 49.457C94.1699 49.1992 94.5273 48.7832 94.832 48.209L96.4404 49.1055C95.9717 49.9434 95.3916 50.5674 94.7002 50.9775C94.0088 51.3877 93.1973 51.5928 92.2656 51.5928C90.9297 51.5928 89.8662 51.1855 89.0752 50.3711C88.2842 49.5566 87.8887 48.4697 87.8887 47.1104C87.8887 45.8037 88.2959 44.7314 89.1104 43.8936C89.9307 43.0498 90.9824 42.6279 92.2656 42.6279C93.6074 42.6279 94.6533 43.0117 95.4033 43.7793C96.1533 44.5469 96.5283 45.6221 96.5283 47.0049V47.3652ZM94.5508 46.082C94.4746 45.4844 94.2461 45.0303 93.8652 44.7197C93.4844 44.4033 92.9629 44.2451 92.3008 44.2451C91.6738 44.2451 91.1699 44.3975 90.7891 44.7021C90.4082 45.0068 90.1416 45.4668 89.9893 46.082H94.5508Z" fill="#F5F2F2"/>
<path d="M21.1343 80.0549H22.0769C22.6409 80.0549 23.0598 80.0334 23.3337 79.9905C23.613 79.9475 23.8601 79.8804 24.075 79.7891C24.4187 79.6279 24.6846 79.3889 24.8726 79.072C25.0659 78.7551 25.1626 78.3872 25.1626 77.9683C25.1626 77.646 25.0955 77.3586 24.9612 77.1062C24.8323 76.8538 24.6416 76.6523 24.3892 76.502C24.2173 76.4053 24.0132 76.3354 23.7769 76.2925C23.5459 76.2441 23.1887 76.22 22.7053 76.22H22.2461H21.6499L21.1343 80.0549ZM20.4253 85.4932H21.2551C22.0608 85.4932 22.6301 85.4717 22.9631 85.4287C23.2961 85.3804 23.5835 85.3025 23.8252 85.1951C24.2012 85.0286 24.4966 84.7681 24.7114 84.4136C24.9263 84.0591 25.0337 83.6509 25.0337 83.189C25.0337 82.8291 24.9585 82.5122 24.8081 82.2383C24.6631 81.9644 24.4509 81.7468 24.1716 81.5857C23.9675 81.4675 23.7285 81.3843 23.4546 81.3359C23.186 81.2822 22.7725 81.2554 22.2139 81.2554H21.7627H20.9893L20.4253 85.4932ZM18.8784 86.75L20.4253 74.9551H22.52C23.4546 74.9551 24.134 75.0088 24.5583 75.1162C24.9827 75.2183 25.3452 75.3955 25.646 75.6479C25.9414 75.9058 26.1643 76.2146 26.3147 76.5745C26.4705 76.929 26.5483 77.3291 26.5483 77.7749C26.5483 78.5269 26.3577 79.1499 25.9763 79.644C25.6003 80.1382 25.0713 80.4551 24.3892 80.5947C25.0552 80.7827 25.5627 81.0996 25.9119 81.5454C26.261 81.9858 26.4355 82.5337 26.4355 83.189C26.4355 83.8066 26.3147 84.3652 26.073 84.8647C25.8313 85.3589 25.4849 85.7617 25.0337 86.0732C24.6738 86.3203 24.228 86.4949 23.6963 86.5969C23.1699 86.699 22.2837 86.75 21.0376 86.75H18.8784ZM28.7397 79.3782H30.0288L29.6018 82.6411C29.5911 82.7271 29.575 82.8506 29.5535 83.0117C29.4407 83.8335 29.3843 84.376 29.3843 84.6392C29.3843 85.0366 29.5212 85.3455 29.7952 85.5657C30.0691 85.7859 30.4558 85.896 30.9553 85.896C31.616 85.896 32.0967 85.7188 32.3975 85.3643C32.6982 85.0098 32.9265 84.2336 33.0823 83.0359L33.5576 79.3782H34.8306L34.3311 83.1245C34.3257 83.1836 34.3149 83.2695 34.2988 83.3823C34.1216 84.7305 33.7993 85.6543 33.332 86.1538C33.0527 86.4492 32.7036 86.6748 32.2847 86.8306C31.8711 86.9863 31.4038 87.0642 30.8828 87.0642C30.0396 87.0642 29.3628 86.8574 28.8525 86.4438C28.3477 86.0249 28.0952 85.4717 28.0952 84.7842C28.0952 84.521 28.157 83.8979 28.2805 82.915L28.2966 82.8022L28.7397 79.3782ZM35.7329 85.6785L36.5547 84.7036C36.8232 85.1387 37.1267 85.4663 37.4651 85.6865C37.8088 85.9014 38.1875 86.0088 38.6011 86.0088C39.063 86.0088 39.4282 85.9041 39.6968 85.6946C39.9707 85.4797 40.1077 85.1924 40.1077 84.8325C40.1077 84.4297 39.7263 84.0537 38.9636 83.7046C38.7703 83.6133 38.6172 83.5381 38.5044 83.479C37.8008 83.1406 37.3335 82.8264 37.1025 82.5364C36.8716 82.2463 36.7561 81.8811 36.7561 81.4407C36.7561 80.7639 37.0059 80.208 37.5054 79.7729C38.0049 79.3325 38.6467 79.1123 39.4309 79.1123C39.925 79.1123 40.3816 79.2036 40.8005 79.3862C41.2195 79.5688 41.5981 79.8401 41.9365 80.2L41.1631 81.1265C40.9375 80.8257 40.6716 80.6001 40.3655 80.4497C40.0593 80.2939 39.7183 80.2161 39.3423 80.2161C38.9717 80.2161 38.6575 80.3235 38.3997 80.5383C38.1418 80.7478 38.0129 80.9976 38.0129 81.2876C38.0129 81.6851 38.4668 82.0798 39.3745 82.4719C39.4336 82.4934 39.4792 82.5122 39.5115 82.5283C40.2366 82.8398 40.7227 83.1487 40.9697 83.4548C41.2168 83.761 41.3403 84.1611 41.3403 84.6553C41.3403 85.4019 41.0986 85.99 40.6152 86.4197C40.1318 86.8494 39.4712 87.0642 38.6333 87.0642C38.0103 87.0642 37.4624 86.9514 36.9897 86.7258C36.5171 86.5002 36.0981 86.1511 35.7329 85.6785ZM44.1682 75.8896C44.1682 75.6533 44.2542 75.4492 44.426 75.2773C44.6033 75.1055 44.8127 75.0195 45.0544 75.0195C45.3015 75.0195 45.5083 75.1055 45.6748 75.2773C45.8467 75.4438 45.9326 75.6479 45.9326 75.8896C45.9326 76.1421 45.8467 76.3542 45.6748 76.5261C45.5083 76.698 45.3015 76.7839 45.0544 76.7839C44.8127 76.7839 44.6033 76.698 44.426 76.5261C44.2542 76.3489 44.1682 76.1367 44.1682 75.8896ZM43.1128 86.75L44.0876 79.3782H45.3687L44.3938 86.75H43.1128ZM47.0444 86.75L48.0112 79.3782H49.2358L49.0667 80.5786C49.4802 80.0791 49.9126 79.7112 50.3638 79.4749C50.8149 79.2332 51.3091 79.1123 51.8462 79.1123C52.5498 79.1123 53.1057 79.3057 53.5139 79.6924C53.9275 80.0791 54.1343 80.6055 54.1343 81.2715C54.1343 81.3896 54.1289 81.5186 54.1182 81.6582C54.1074 81.7979 54.0913 81.9429 54.0698 82.0933L53.4575 86.75H52.1685L52.7485 82.2302C52.7539 82.1926 52.7593 82.1416 52.7646 82.0771C52.7969 81.814 52.813 81.6394 52.813 81.5535C52.813 81.113 52.6787 80.7773 52.4102 80.5464C52.1416 80.3154 51.7495 80.2 51.2339 80.2C50.5571 80.2 50.012 80.4417 49.5984 80.925C49.1848 81.4031 48.9163 82.1013 48.7927 83.0198L48.2932 86.75H47.0444ZM62.9805 83.2776L57.075 83.2856V83.4146C57.075 84.2041 57.2764 84.8271 57.6792 85.2837C58.082 85.7349 58.6326 85.9604 59.3308 85.9604C59.7659 85.9604 60.166 85.8557 60.5312 85.6462C60.8965 85.4368 61.251 85.1118 61.5947 84.6714L62.481 85.3965C62.0513 85.9551 61.5786 86.374 61.063 86.6533C60.5474 86.9272 59.9861 87.0642 59.3792 87.0642C58.2781 87.0642 57.4026 86.7339 56.7527 86.0732C56.1082 85.4072 55.7859 84.5103 55.7859 83.3823C55.7859 82.1523 56.1619 81.1345 56.9138 80.3289C57.6658 79.5178 58.6084 79.1123 59.7417 79.1123C60.7729 79.1123 61.5732 79.4265 62.1426 80.0549C62.7119 80.6833 62.9966 81.5669 62.9966 82.7056C62.9966 82.8613 62.9939 82.9795 62.9885 83.0601C62.9885 83.1406 62.9858 83.2131 62.9805 83.2776ZM61.7559 82.2302C61.7451 81.5642 61.5625 81.0513 61.208 80.6914C60.8589 80.3315 60.3647 80.1516 59.7256 80.1516C59.0918 80.1516 58.5439 80.3396 58.082 80.7156C57.6255 81.0916 57.3274 81.5964 57.1877 82.2302H61.7559ZM63.8022 85.6785L64.624 84.7036C64.8926 85.1387 65.196 85.4663 65.5344 85.6865C65.8782 85.9014 66.2568 86.0088 66.6704 86.0088C67.1323 86.0088 67.4976 85.9041 67.7661 85.6946C68.04 85.4797 68.177 85.1924 68.177 84.8325C68.177 84.4297 67.7957 84.0537 67.033 83.7046C66.8396 83.6133 66.6865 83.5381 66.5737 83.479C65.8701 83.1406 65.4028 82.8264 65.1719 82.5364C64.9409 82.2463 64.8254 81.8811 64.8254 81.4407C64.8254 80.7639 65.0752 80.208 65.5747 79.7729C66.0742 79.3325 66.7161 79.1123 67.5002 79.1123C67.9944 79.1123 68.4509 79.2036 68.8699 79.3862C69.2888 79.5688 69.6675 79.8401 70.0059 80.2L69.2324 81.1265C69.0068 80.8257 68.741 80.6001 68.4348 80.4497C68.1287 80.2939 67.7876 80.2161 67.4116 80.2161C67.041 80.2161 66.7268 80.3235 66.469 80.5383C66.2112 80.7478 66.0823 80.9976 66.0823 81.2876C66.0823 81.6851 66.5361 82.0798 67.4438 82.4719C67.5029 82.4934 67.5486 82.5122 67.5808 82.5283C68.3059 82.8398 68.792 83.1487 69.0391 83.4548C69.2861 83.761 69.4097 84.1611 69.4097 84.6553C69.4097 85.4019 69.168 85.99 68.6846 86.4197C68.2012 86.8494 67.5405 87.0642 66.7026 87.0642C66.0796 87.0642 65.5317 86.9514 65.0591 86.7258C64.5864 86.5002 64.1675 86.1511 63.8022 85.6785ZM70.5698 85.6785L71.3916 84.7036C71.6602 85.1387 71.9636 85.4663 72.302 85.6865C72.6458 85.9014 73.0244 86.0088 73.438 86.0088C73.8999 86.0088 74.2651 85.9041 74.5337 85.6946C74.8076 85.4797 74.9446 85.1924 74.9446 84.8325C74.9446 84.4297 74.5632 84.0537 73.8005 83.7046C73.6072 83.6133 73.4541 83.5381 73.3413 83.479C72.6377 83.1406 72.1704 82.8264 71.9395 82.5364C71.7085 82.2463 71.593 81.8811 71.593 81.4407C71.593 80.7639 71.8428 80.208 72.3423 79.7729C72.8418 79.3325 73.4836 79.1123 74.2678 79.1123C74.762 79.1123 75.2185 79.2036 75.6375 79.3862C76.0564 79.5688 76.4351 79.8401 76.7734 80.2L76 81.1265C75.7744 80.8257 75.5085 80.6001 75.2024 80.4497C74.8962 80.2939 74.5552 80.2161 74.1792 80.2161C73.8086 80.2161 73.4944 80.3235 73.2366 80.5383C72.9788 80.7478 72.8499 80.9976 72.8499 81.2876C72.8499 81.6851 73.3037 82.0798 74.2114 82.4719C74.2705 82.4934 74.3162 82.5122 74.3484 82.5283C75.0735 82.8398 75.5596 83.1487 75.8066 83.4548C76.0537 83.761 76.1772 84.1611 76.1772 84.6553C76.1772 85.4019 75.9355 85.99 75.4521 86.4197C74.9688 86.8494 74.3081 87.0642 73.4702 87.0642C72.8472 87.0642 72.2993 86.9514 71.8267 86.7258C71.354 86.5002 70.9351 86.1511 70.5698 85.6785ZM92.6208 77.4124C92.0676 76.9128 91.5144 76.5449 90.9612 76.3086C90.408 76.0669 89.8333 75.946 89.2371 75.946C88.5872 75.946 87.9775 76.0642 87.4082 76.3005C86.8389 76.5369 86.342 76.8806 85.9177 77.3318C85.429 77.8474 85.0557 78.4355 84.7979 79.0962C84.5454 79.7568 84.4192 80.4551 84.4192 81.1909C84.4192 82.6035 84.8086 83.7207 85.5874 84.5425C86.3662 85.3643 87.427 85.7751 88.7698 85.7751C89.2908 85.7751 89.8091 85.6865 90.3247 85.5093C90.8457 85.332 91.3962 85.0527 91.9763 84.6714L91.6621 86.323C91.1895 86.5701 90.6926 86.7554 90.1716 86.8789C89.656 87.0024 89.1135 87.0642 88.5442 87.0642C86.8845 87.0642 85.5364 86.5298 84.4998 85.4609C83.4631 84.3867 82.9448 82.9956 82.9448 81.2876C82.9448 80.3423 83.1113 79.4534 83.4443 78.6208C83.7827 77.783 84.2661 77.0498 84.8945 76.4214C85.4585 75.8574 86.1084 75.4277 86.8442 75.1323C87.5801 74.8369 88.3723 74.6892 89.2209 74.6892C89.9514 74.6892 90.6255 74.7966 91.2432 75.0115C91.8662 75.2209 92.4517 75.5486 92.9995 75.9944L92.6208 77.4124ZM97.616 80.1516C96.8049 80.1516 96.1335 80.4524 95.6018 81.054C95.0754 81.6501 94.8123 82.4102 94.8123 83.334C94.8123 84.145 95.0405 84.8003 95.4971 85.2998C95.959 85.7939 96.5659 86.041 97.3179 86.041C98.1235 86.041 98.7896 85.7429 99.3159 85.1467C99.8423 84.5505 100.105 83.7932 100.105 82.8748C100.105 82.0798 99.8718 81.4272 99.4045 80.917C98.9426 80.4067 98.3464 80.1516 97.616 80.1516ZM93.5232 83.3662C93.5232 82.1577 93.9207 81.1479 94.7156 80.3369C95.5105 79.5205 96.4988 79.1123 97.6804 79.1123C98.7493 79.1123 99.6328 79.4507 100.331 80.1274C101.029 80.7988 101.378 81.6367 101.378 82.6411C101.378 83.9517 100.992 85.0178 100.218 85.8396C99.4502 86.656 98.4565 87.0642 97.2373 87.0642C96.1147 87.0642 95.2151 86.7258 94.5383 86.0491C93.8616 85.3723 93.5232 84.478 93.5232 83.3662ZM104.142 86.75H102.845L104.488 74.2622H105.777L104.142 86.75ZM108.122 86.75H106.825L108.468 74.2622H109.757L108.122 86.75ZM114.301 85.8718C115.021 85.8718 115.628 85.5737 116.122 84.9775C116.622 84.3813 116.871 83.6401 116.871 82.7539C116.871 82.0073 116.675 81.4031 116.283 80.9412C115.896 80.4792 115.389 80.2483 114.76 80.2483C113.944 80.2483 113.275 80.5383 112.754 81.1184C112.233 81.6985 111.973 82.437 111.973 83.334C111.973 84.0913 112.188 84.7036 112.617 85.1709C113.052 85.6382 113.614 85.8718 114.301 85.8718ZM117.355 79.3782H118.62L117.653 86.75H116.364L116.541 85.6462C116.187 86.1243 115.789 86.4788 115.349 86.7097C114.914 86.9353 114.417 87.0481 113.858 87.0481C112.913 87.0481 112.145 86.7043 111.554 86.0168C110.963 85.3293 110.668 84.4351 110.668 83.334C110.668 82.1147 111.028 81.1077 111.747 80.3127C112.467 79.5125 113.372 79.1123 114.462 79.1123C115.118 79.1123 115.668 79.2573 116.114 79.5474C116.56 79.8374 116.906 80.2751 117.153 80.8606L117.355 79.3782ZM124.34 80.3289C123.62 80.3289 123.01 80.627 122.511 81.2231C122.011 81.814 121.762 82.5498 121.762 83.4307C121.762 84.1826 121.958 84.7896 122.35 85.2515C122.742 85.7134 123.25 85.9443 123.873 85.9443C124.694 85.9443 125.366 85.6543 125.887 85.0742C126.408 84.4941 126.668 83.7556 126.668 82.8586C126.668 82.1013 126.453 81.4917 126.024 81.0298C125.594 80.5625 125.033 80.3289 124.34 80.3289ZM121.319 86.75H120.013L121.665 74.2622H122.954L122.108 80.5303C122.452 80.063 122.844 79.7139 123.284 79.4829C123.73 79.2466 124.224 79.1284 124.767 79.1284C125.728 79.1284 126.502 79.4722 127.087 80.1597C127.673 80.8472 127.965 81.7629 127.965 82.907C127.965 83.3904 127.882 83.8711 127.716 84.3491C127.554 84.8271 127.321 85.2703 127.015 85.6785C126.682 86.1189 126.268 86.46 125.774 86.7017C125.28 86.9434 124.751 87.0642 124.187 87.0642C123.542 87.0642 122.994 86.9192 122.543 86.6292C122.097 86.3337 121.751 85.896 121.504 85.3159L121.319 86.75ZM133.387 80.1516C132.576 80.1516 131.905 80.4524 131.373 81.054C130.847 81.6501 130.584 82.4102 130.584 83.334C130.584 84.145 130.812 84.8003 131.269 85.2998C131.73 85.7939 132.337 86.041 133.089 86.041C133.895 86.041 134.561 85.7429 135.087 85.1467C135.614 84.5505 135.877 83.7932 135.877 82.8748C135.877 82.0798 135.643 81.4272 135.176 80.917C134.714 80.4067 134.118 80.1516 133.387 80.1516ZM129.295 83.3662C129.295 82.1577 129.692 81.1479 130.487 80.3369C131.282 79.5205 132.27 79.1123 133.452 79.1123C134.521 79.1123 135.404 79.4507 136.103 80.1274C136.801 80.7988 137.15 81.6367 137.15 82.6411C137.15 83.9517 136.763 85.0178 135.99 85.8396C135.222 86.656 134.228 87.0642 133.009 87.0642C131.886 87.0642 130.987 86.7258 130.31 86.0491C129.633 85.3723 129.295 84.478 129.295 83.3662ZM143.2 80.5786C143.061 80.5088 142.918 80.4551 142.773 80.4175C142.628 80.3799 142.483 80.3611 142.338 80.3611C141.774 80.3611 141.326 80.5974 140.993 81.0701C140.665 81.5427 140.434 82.2759 140.3 83.2695L139.833 86.75H138.584L139.551 79.3782H140.824L140.622 80.5464C140.961 80.0469 141.302 79.6843 141.646 79.4587C141.995 79.2278 142.376 79.1123 142.79 79.1123C142.908 79.1123 143.029 79.1257 143.152 79.1526C143.281 79.1794 143.407 79.2197 143.531 79.2734L143.2 80.5786ZM147.688 85.8718C148.408 85.8718 149.015 85.5737 149.509 84.9775C150.008 84.3813 150.258 83.6401 150.258 82.7539C150.258 82.0073 150.062 81.4031 149.67 80.9412C149.283 80.4792 148.776 80.2483 148.147 80.2483C147.331 80.2483 146.662 80.5383 146.141 81.1184C145.62 81.6985 145.36 82.437 145.36 83.334C145.36 84.0913 145.574 84.7036 146.004 85.1709C146.439 85.6382 147 85.8718 147.688 85.8718ZM150.741 79.3782H152.006L151.04 86.75H149.75L149.928 85.6462C149.573 86.1243 149.176 86.4788 148.735 86.7097C148.3 86.9353 147.803 87.0481 147.245 87.0481C146.3 87.0481 145.531 86.7043 144.941 86.0168C144.35 85.3293 144.054 84.4351 144.054 83.334C144.054 82.1147 144.414 81.1077 145.134 80.3127C145.854 79.5125 146.759 79.1123 147.849 79.1123C148.504 79.1123 149.055 79.2573 149.501 79.5474C149.947 79.8374 150.293 80.2751 150.54 80.8606L150.741 79.3782ZM153.827 86.75L154.657 80.4497H153.287L153.432 79.3782H154.802L155.181 76.4053H156.486L156.091 79.3782H157.71L157.573 80.4497H155.946L155.116 86.75H153.827ZM159.362 75.8896C159.362 75.6533 159.448 75.4492 159.62 75.2773C159.797 75.1055 160.007 75.0195 160.248 75.0195C160.495 75.0195 160.702 75.1055 160.869 75.2773C161.041 75.4438 161.126 75.6479 161.126 75.8896C161.126 76.1421 161.041 76.3542 160.869 76.5261C160.702 76.698 160.495 76.7839 160.248 76.7839C160.007 76.7839 159.797 76.698 159.62 76.5261C159.448 76.3489 159.362 76.1367 159.362 75.8896ZM158.307 86.75L159.281 79.3782H160.562L159.588 86.75H158.307ZM166.13 80.1516C165.319 80.1516 164.647 80.4524 164.115 81.054C163.589 81.6501 163.326 82.4102 163.326 83.334C163.326 84.145 163.554 84.8003 164.011 85.2998C164.473 85.7939 165.08 86.041 165.832 86.041C166.637 86.041 167.303 85.7429 167.83 85.1467C168.356 84.5505 168.619 83.7932 168.619 82.8748C168.619 82.0798 168.385 81.4272 167.918 80.917C167.456 80.4067 166.86 80.1516 166.13 80.1516ZM162.037 83.3662C162.037 82.1577 162.434 81.1479 163.229 80.3369C164.024 79.5205 165.012 79.1123 166.194 79.1123C167.263 79.1123 168.146 79.4507 168.845 80.1274C169.543 80.7988 169.892 81.6367 169.892 82.6411C169.892 83.9517 169.505 85.0178 168.732 85.8396C167.964 86.656 166.97 87.0642 165.751 87.0642C164.628 87.0642 163.729 86.7258 163.052 86.0491C162.375 85.3723 162.037 84.478 162.037 83.3662ZM171.326 86.75L172.293 79.3782H173.518L173.348 80.5786C173.762 80.0791 174.194 79.7112 174.646 79.4749C175.097 79.2332 175.591 79.1123 176.128 79.1123C176.832 79.1123 177.387 79.3057 177.796 79.6924C178.209 80.0791 178.416 80.6055 178.416 81.2715C178.416 81.3896 178.411 81.5186 178.4 81.6582C178.389 81.7979 178.373 81.9429 178.352 82.0933L177.739 86.75H176.45L177.03 82.2302C177.036 82.1926 177.041 82.1416 177.046 82.0771C177.079 81.814 177.095 81.6394 177.095 81.5535C177.095 81.113 176.96 80.7773 176.692 80.5464C176.423 80.3154 176.031 80.2 175.516 80.2C174.839 80.2 174.294 80.4417 173.88 80.925C173.467 81.4031 173.198 82.1013 173.074 83.0198L172.575 86.75H171.326ZM22.3105 114.872C23.0303 114.872 23.6372 114.574 24.1313 113.978C24.6309 113.381 24.8806 112.64 24.8806 111.754C24.8806 111.007 24.6846 110.403 24.2925 109.941C23.9058 109.479 23.3982 109.248 22.7698 109.248C21.9534 109.248 21.2847 109.538 20.7637 110.118C20.2427 110.698 19.9822 111.437 19.9822 112.334C19.9822 113.091 20.197 113.704 20.6267 114.171C21.0618 114.638 21.623 114.872 22.3105 114.872ZM25.364 108.378H26.6289L25.1948 119.343H23.8896L24.5503 114.646C24.1958 115.13 23.7983 115.487 23.3579 115.718C22.9175 115.949 22.4207 116.064 21.8674 116.064C20.9329 116.064 20.1675 115.723 19.5713 115.041C18.9751 114.354 18.677 113.473 18.677 112.398C18.677 111.158 19.0342 110.132 19.7485 109.321C20.4683 108.504 21.3706 108.096 22.4556 108.096C23.1162 108.096 23.6694 108.241 24.1152 108.531C24.5664 108.821 24.9155 109.259 25.1626 109.844L25.364 108.378ZM29.0459 108.378H30.335L29.908 111.641C29.8972 111.727 29.8811 111.851 29.8596 112.012C29.7468 112.833 29.6904 113.376 29.6904 113.639C29.6904 114.037 29.8274 114.345 30.1013 114.566C30.3752 114.786 30.762 114.896 31.2615 114.896C31.9221 114.896 32.4028 114.719 32.7036 114.364C33.0044 114.01 33.2327 113.234 33.3884 112.036L33.8638 108.378H35.1367L34.6372 112.125C34.6318 112.184 34.6211 112.27 34.605 112.382C34.4277 113.73 34.1055 114.654 33.6382 115.154C33.3589 115.449 33.0098 115.675 32.5908 115.831C32.1772 115.986 31.71 116.064 31.189 116.064C30.3457 116.064 29.6689 115.857 29.1587 115.444C28.6538 115.025 28.4014 114.472 28.4014 113.784C28.4014 113.521 28.4631 112.898 28.5867 111.915L28.6028 111.802L29.0459 108.378ZM37.7068 104.89C37.7068 104.653 37.7927 104.449 37.9646 104.277C38.1418 104.105 38.3513 104.02 38.593 104.02C38.8401 104.02 39.0469 104.105 39.2134 104.277C39.3853 104.444 39.4712 104.648 39.4712 104.89C39.4712 105.142 39.3853 105.354 39.2134 105.526C39.0469 105.698 38.8401 105.784 38.593 105.784C38.3513 105.784 38.1418 105.698 37.9646 105.526C37.7927 105.349 37.7068 105.137 37.7068 104.89ZM36.6514 115.75L37.6262 108.378H38.9072L37.9324 115.75H36.6514ZM40.019 114.678L40.8408 113.704C41.1094 114.139 41.4128 114.466 41.7512 114.687C42.095 114.901 42.4736 115.009 42.8872 115.009C43.3491 115.009 43.7144 114.904 43.9829 114.695C44.2568 114.48 44.3938 114.192 44.3938 113.833C44.3938 113.43 44.0125 113.054 43.2498 112.705C43.0564 112.613 42.9033 112.538 42.7905 112.479C42.0869 112.141 41.6196 111.826 41.3887 111.536C41.1577 111.246 41.0422 110.881 41.0422 110.441C41.0422 109.764 41.292 109.208 41.7915 108.773C42.291 108.333 42.9329 108.112 43.717 108.112C44.2112 108.112 44.6677 108.204 45.0867 108.386C45.5056 108.569 45.8843 108.84 46.2227 109.2L45.4492 110.126C45.2236 109.826 44.9578 109.6 44.6516 109.45C44.3455 109.294 44.0044 109.216 43.6284 109.216C43.2578 109.216 42.9436 109.323 42.6858 109.538C42.428 109.748 42.2991 109.998 42.2991 110.288C42.2991 110.685 42.7529 111.08 43.6606 111.472C43.7197 111.493 43.7654 111.512 43.7976 111.528C44.5227 111.84 45.0088 112.149 45.2559 112.455C45.5029 112.761 45.6265 113.161 45.6265 113.655C45.6265 114.402 45.3848 114.99 44.9014 115.42C44.418 115.849 43.7573 116.064 42.9194 116.064C42.2964 116.064 41.7485 115.951 41.2759 115.726C40.8032 115.5 40.3843 115.151 40.019 114.678ZM52.104 115.75L53.0708 108.378H54.2954L54.1262 109.579C54.5398 109.079 54.9722 108.711 55.4233 108.475C55.8745 108.233 56.3687 108.112 56.9058 108.112C57.6094 108.112 58.1653 108.306 58.5735 108.692C58.9871 109.079 59.1938 109.605 59.1938 110.271C59.1938 110.39 59.1885 110.519 59.1777 110.658C59.167 110.798 59.1509 110.943 59.1294 111.093L58.5171 115.75H57.228L57.8081 111.23C57.8135 111.193 57.8188 111.142 57.8242 111.077C57.8564 110.814 57.8726 110.639 57.8726 110.553C57.8726 110.113 57.7383 109.777 57.4697 109.546C57.2012 109.315 56.8091 109.2 56.2935 109.2C55.6167 109.2 55.0715 109.442 54.658 109.925C54.2444 110.403 53.9758 111.101 53.8523 112.02L53.3528 115.75H52.104ZM64.9382 109.152C64.1272 109.152 63.4558 109.452 62.9241 110.054C62.3977 110.65 62.1345 111.41 62.1345 112.334C62.1345 113.145 62.3628 113.8 62.8193 114.3C63.2812 114.794 63.8882 115.041 64.6401 115.041C65.4458 115.041 66.1118 114.743 66.6382 114.147C67.1646 113.551 67.4277 112.793 67.4277 111.875C67.4277 111.08 67.1941 110.427 66.7268 109.917C66.2649 109.407 65.6687 109.152 64.9382 109.152ZM60.8455 112.366C60.8455 111.158 61.2429 110.148 62.0378 109.337C62.8328 108.521 63.821 108.112 65.0027 108.112C66.0715 108.112 66.9551 108.451 67.6533 109.127C68.3516 109.799 68.7007 110.637 68.7007 111.641C68.7007 112.952 68.314 114.018 67.5405 114.84C66.7725 115.656 65.7788 116.064 64.5596 116.064C63.437 116.064 62.5374 115.726 61.8606 115.049C61.1838 114.372 60.8455 113.478 60.8455 112.366ZM69.5708 114.678L70.3926 113.704C70.6611 114.139 70.9646 114.466 71.303 114.687C71.6467 114.901 72.0254 115.009 72.439 115.009C72.9009 115.009 73.2661 114.904 73.5347 114.695C73.8086 114.48 73.9456 114.192 73.9456 113.833C73.9456 113.43 73.5642 113.054 72.8015 112.705C72.6082 112.613 72.4551 112.538 72.3423 112.479C71.6387 112.141 71.1714 111.826 70.9404 111.536C70.7095 111.246 70.594 110.881 70.594 110.441C70.594 109.764 70.8438 109.208 71.3433 108.773C71.8428 108.333 72.4846 108.112 73.2688 108.112C73.7629 108.112 74.2195 108.204 74.6384 108.386C75.0574 108.569 75.436 108.84 75.7744 109.2L75.001 110.126C74.7754 109.826 74.5095 109.6 74.2034 109.45C73.8972 109.294 73.5562 109.216 73.1802 109.216C72.8096 109.216 72.4954 109.323 72.2375 109.538C71.9797 109.748 71.8508 109.998 71.8508 110.288C71.8508 110.685 72.3047 111.08 73.2124 111.472C73.2715 111.493 73.3171 111.512 73.3494 111.528C74.0745 111.84 74.5605 112.149 74.8076 112.455C75.0547 112.761 75.1782 113.161 75.1782 113.655C75.1782 114.402 74.9365 114.99 74.4531 115.42C73.9697 115.849 73.3091 116.064 72.4712 116.064C71.8481 116.064 71.3003 115.951 70.8276 115.726C70.355 115.5 69.936 115.151 69.5708 114.678ZM77.2085 115.75L78.0383 109.45H76.6687L76.8137 108.378H78.1833L78.562 105.405H79.8672L79.4724 108.378H81.0918L80.9548 109.45H79.3274L78.4976 115.75H77.2085ZM86.2561 109.579C86.1165 109.509 85.9741 109.455 85.8291 109.417C85.6841 109.38 85.5391 109.361 85.394 109.361C84.8301 109.361 84.3816 109.597 84.0486 110.07C83.7209 110.543 83.49 111.276 83.3557 112.27L82.8884 115.75H81.6396L82.6064 108.378H83.8794L83.678 109.546C84.0164 109.047 84.3574 108.684 84.7012 108.459C85.0503 108.228 85.4316 108.112 85.8452 108.112C85.9634 108.112 86.0842 108.126 86.2078 108.153C86.3367 108.179 86.4629 108.22 86.5864 108.273L86.2561 109.579ZM88.1172 108.378H89.4062L88.9792 111.641C88.9685 111.727 88.9524 111.851 88.9309 112.012C88.8181 112.833 88.7617 113.376 88.7617 113.639C88.7617 114.037 88.8987 114.345 89.1726 114.566C89.4465 114.786 89.8333 114.896 90.3328 114.896C90.9934 114.896 91.4741 114.719 91.7749 114.364C92.0757 114.01 92.304 113.234 92.4597 112.036L92.9351 108.378H94.208L93.7085 112.125C93.7031 112.184 93.6924 112.27 93.6763 112.382C93.499 113.73 93.1768 114.654 92.7095 115.154C92.4302 115.449 92.0811 115.675 91.6621 115.831C91.2485 115.986 90.7812 116.064 90.2603 116.064C89.417 116.064 88.7402 115.857 88.23 115.444C87.7251 115.025 87.4727 114.472 87.4727 113.784C87.4727 113.521 87.5344 112.898 87.658 111.915L87.6741 111.802L88.1172 108.378ZM99.1709 114.872C99.8853 114.872 100.492 114.574 100.992 113.978C101.491 113.381 101.741 112.64 101.741 111.754C101.741 111.007 101.545 110.403 101.153 109.941C100.766 109.479 100.259 109.248 99.6301 109.248C98.8137 109.248 98.1477 109.538 97.6321 110.118C97.1165 110.693 96.8586 111.432 96.8586 112.334C96.8586 113.091 97.0708 113.704 97.4951 114.171C97.9248 114.638 98.4834 114.872 99.1709 114.872ZM102.885 103.262H104.166L102.514 115.75H101.233L101.411 114.646C101.056 115.124 100.659 115.479 100.218 115.71C99.7832 115.935 99.2837 116.048 98.7197 116.048C97.7798 116.048 97.0144 115.704 96.4236 115.017C95.8328 114.329 95.5374 113.435 95.5374 112.334C95.5374 111.115 95.8972 110.108 96.6169 109.313C97.3367 108.512 98.2417 108.112 99.332 108.112C99.9873 108.112 100.538 108.257 100.984 108.547C101.429 108.837 101.776 109.275 102.023 109.861L102.885 103.262ZM116.783 112.278L110.877 112.286V112.415C110.877 113.204 111.079 113.827 111.481 114.284C111.884 114.735 112.435 114.96 113.133 114.96C113.568 114.96 113.968 114.856 114.333 114.646C114.699 114.437 115.053 114.112 115.397 113.671L116.283 114.396C115.854 114.955 115.381 115.374 114.865 115.653C114.35 115.927 113.788 116.064 113.181 116.064C112.08 116.064 111.205 115.734 110.555 115.073C109.91 114.407 109.588 113.51 109.588 112.382C109.588 111.152 109.964 110.135 110.716 109.329C111.468 108.518 112.411 108.112 113.544 108.112C114.575 108.112 115.375 108.427 115.945 109.055C116.514 109.683 116.799 110.567 116.799 111.706C116.799 111.861 116.796 111.979 116.791 112.06C116.791 112.141 116.788 112.213 116.783 112.278ZM115.558 111.23C115.547 110.564 115.365 110.051 115.01 109.691C114.661 109.332 114.167 109.152 113.528 109.152C112.894 109.152 112.346 109.34 111.884 109.716C111.428 110.092 111.13 110.596 110.99 111.23H115.558ZM117.355 115.75L120.408 111.955L118.41 108.378H119.901L121.286 111.117L123.349 108.378H124.896L121.842 112.084L123.873 115.75H122.39L121.037 112.946L118.91 115.75H117.355ZM132.638 112.278L126.733 112.286V112.415C126.733 113.204 126.934 113.827 127.337 114.284C127.74 114.735 128.29 114.96 128.989 114.96C129.424 114.96 129.824 114.856 130.189 114.646C130.554 114.437 130.909 114.112 131.252 113.671L132.139 114.396C131.709 114.955 131.236 115.374 130.721 115.653C130.205 115.927 129.644 116.064 129.037 116.064C127.936 116.064 127.06 115.734 126.41 115.073C125.766 114.407 125.444 113.51 125.444 112.382C125.444 111.152 125.82 110.135 126.572 109.329C127.323 108.518 128.266 108.112 129.399 108.112C130.431 108.112 131.231 108.427 131.8 109.055C132.37 109.683 132.654 110.567 132.654 111.706C132.654 111.861 132.652 111.979 132.646 112.06C132.646 112.141 132.644 112.213 132.638 112.278ZM131.414 111.23C131.403 110.564 131.22 110.051 130.866 109.691C130.517 109.332 130.022 109.152 129.383 109.152C128.75 109.152 128.202 109.34 127.74 109.716C127.283 110.092 126.985 110.596 126.845 111.23H131.414ZM138.64 109.579C138.501 109.509 138.358 109.455 138.213 109.417C138.068 109.38 137.923 109.361 137.778 109.361C137.214 109.361 136.766 109.597 136.433 110.07C136.105 110.543 135.874 111.276 135.74 112.27L135.273 115.75H134.024L134.991 108.378H136.264L136.062 109.546C136.401 109.047 136.742 108.684 137.085 108.459C137.435 108.228 137.816 108.112 138.229 108.112C138.348 108.112 138.469 108.126 138.592 108.153C138.721 108.179 138.847 108.22 138.971 108.273L138.64 109.579ZM146.093 110.288C145.711 109.901 145.319 109.619 144.917 109.442C144.519 109.259 144.087 109.168 143.619 109.168C142.76 109.168 142.059 109.469 141.517 110.07C140.974 110.672 140.703 111.453 140.703 112.415C140.703 113.188 140.937 113.811 141.404 114.284C141.876 114.756 142.5 114.993 143.273 114.993C143.649 114.993 144.017 114.917 144.377 114.767C144.737 114.617 145.134 114.367 145.569 114.018L145.368 115.404C145.078 115.618 144.731 115.782 144.328 115.895C143.931 116.008 143.499 116.064 143.031 116.064C141.946 116.064 141.068 115.729 140.397 115.057C139.731 114.38 139.398 113.494 139.398 112.398C139.398 111.142 139.795 110.113 140.59 109.313C141.39 108.512 142.427 108.112 143.7 108.112C144.162 108.112 144.602 108.174 145.021 108.298C145.446 108.421 145.865 108.612 146.278 108.87L146.093 110.288ZM148.341 104.89C148.341 104.653 148.427 104.449 148.598 104.277C148.776 104.105 148.985 104.02 149.227 104.02C149.474 104.02 149.681 104.105 149.847 104.277C150.019 104.444 150.105 104.648 150.105 104.89C150.105 105.142 150.019 105.354 149.847 105.526C149.681 105.698 149.474 105.784 149.227 105.784C148.985 105.784 148.776 105.698 148.598 105.526C148.427 105.349 148.341 105.137 148.341 104.89ZM147.285 115.75L148.26 108.378H149.541L148.566 115.75H147.285ZM151.523 115.75L152.353 109.45H150.983L151.128 108.378H152.498L152.876 105.405H154.182L153.787 108.378H155.406L155.269 109.45H153.642L152.812 115.75H151.523ZM159.483 114.872C160.203 114.872 160.81 114.574 161.304 113.978C161.803 113.381 162.053 112.64 162.053 111.754C162.053 111.007 161.857 110.403 161.465 109.941C161.078 109.479 160.571 109.248 159.942 109.248C159.126 109.248 158.457 109.538 157.936 110.118C157.415 110.698 157.155 111.437 157.155 112.334C157.155 113.091 157.369 113.704 157.799 114.171C158.234 114.638 158.795 114.872 159.483 114.872ZM162.536 108.378H163.801L162.834 115.75H161.545L161.723 114.646C161.368 115.124 160.971 115.479 160.53 115.71C160.095 115.935 159.598 116.048 159.04 116.048C158.094 116.048 157.326 115.704 156.736 115.017C156.145 114.329 155.849 113.435 155.849 112.334C155.849 111.115 156.209 110.108 156.929 109.313C157.649 108.512 158.554 108.112 159.644 108.112C160.299 108.112 160.85 108.257 161.296 108.547C161.741 108.837 162.088 109.275 162.335 109.861L162.536 108.378ZM165.622 115.75L166.452 109.45H165.082L165.227 108.378H166.597L166.976 105.405H168.281L167.886 108.378H169.505L169.368 109.45H167.741L166.911 115.75H165.622ZM171.157 104.89C171.157 104.653 171.243 104.449 171.415 104.277C171.592 104.105 171.802 104.02 172.043 104.02C172.29 104.02 172.497 104.105 172.664 104.277C172.835 104.444 172.921 104.648 172.921 104.89C172.921 105.142 172.835 105.354 172.664 105.526C172.497 105.698 172.29 105.784 172.043 105.784C171.802 105.784 171.592 105.698 171.415 105.526C171.243 105.349 171.157 105.137 171.157 104.89ZM170.102 115.75L171.076 108.378H172.357L171.383 115.75H170.102ZM177.925 109.152C177.114 109.152 176.442 109.452 175.91 110.054C175.384 110.65 175.121 111.41 175.121 112.334C175.121 113.145 175.349 113.8 175.806 114.3C176.268 114.794 176.875 115.041 177.626 115.041C178.432 115.041 179.098 114.743 179.625 114.147C180.151 113.551 180.414 112.793 180.414 111.875C180.414 111.08 180.18 110.427 179.713 109.917C179.251 109.407 178.655 109.152 177.925 109.152ZM173.832 112.366C173.832 111.158 174.229 110.148 175.024 109.337C175.819 108.521 176.807 108.112 177.989 108.112C179.058 108.112 179.941 108.451 180.64 109.127C181.338 109.799 181.687 110.637 181.687 111.641C181.687 112.952 181.3 114.018 180.527 114.84C179.759 115.656 178.765 116.064 177.546 116.064C176.423 116.064 175.524 115.726 174.847 115.049C174.17 114.372 173.832 113.478 173.832 112.366ZM183.121 115.75L184.088 108.378H185.312L185.143 109.579C185.557 109.079 185.989 108.711 186.44 108.475C186.892 108.233 187.386 108.112 187.923 108.112C188.626 108.112 189.182 108.306 189.591 108.692C190.004 109.079 190.211 109.605 190.211 110.271C190.211 110.39 190.206 110.519 190.195 110.658C190.184 110.798 190.168 110.943 190.146 111.093L189.534 115.75H188.245L188.825 111.23C188.831 111.193 188.836 111.142 188.841 111.077C188.874 110.814 188.89 110.639 188.89 110.553C188.89 110.113 188.755 109.777 188.487 109.546C188.218 109.315 187.826 109.2 187.311 109.2C186.634 109.2 186.089 109.442 185.675 109.925C185.261 110.403 184.993 111.101 184.869 112.02L184.37 115.75H183.121ZM197.72 108.378H199.009L198.582 111.641C198.571 111.727 198.555 111.851 198.533 112.012C198.421 112.833 198.364 113.376 198.364 113.639C198.364 114.037 198.501 114.345 198.775 114.566C199.049 114.786 199.436 114.896 199.935 114.896C200.596 114.896 201.077 114.719 201.377 114.364C201.678 114.01 201.906 113.234 202.062 112.036L202.538 108.378H203.811L203.311 112.125C203.306 112.184 203.295 112.27 203.279 112.382C203.102 113.73 202.779 114.654 202.312 115.154C202.033 115.449 201.684 115.675 201.265 115.831C200.851 115.986 200.384 116.064 199.863 116.064C199.02 116.064 198.343 115.857 197.833 115.444C197.328 115.025 197.075 114.472 197.075 113.784C197.075 113.521 197.137 112.898 197.26 111.915L197.277 111.802L197.72 108.378ZM206.606 115.75H205.309L206.953 103.262H208.242L206.606 115.75ZM210.586 115.75H209.289L210.933 103.262H212.222L210.586 115.75ZM216.766 114.872C217.485 114.872 218.092 114.574 218.586 113.978C219.086 113.381 219.336 112.64 219.336 111.754C219.336 111.007 219.14 110.403 218.748 109.941C218.361 109.479 217.853 109.248 217.225 109.248C216.408 109.248 215.74 109.538 215.219 110.118C214.698 110.698 214.437 111.437 214.437 112.334C214.437 113.091 214.652 113.704 215.082 114.171C215.517 114.638 216.078 114.872 216.766 114.872ZM219.819 108.378H221.084L220.117 115.75H218.828L219.005 114.646C218.651 115.124 218.253 115.479 217.813 115.71C217.378 115.935 216.881 116.048 216.323 116.048C215.377 116.048 214.609 115.704 214.018 115.017C213.427 114.329 213.132 113.435 213.132 112.334C213.132 111.115 213.492 110.108 214.212 109.313C214.931 108.512 215.836 108.112 216.927 108.112C217.582 108.112 218.133 108.257 218.578 108.547C219.024 108.837 219.371 109.275 219.618 109.861L219.819 108.378ZM227.167 115.75L227.763 111.222C227.779 111.109 227.79 110.997 227.795 110.884C227.806 110.771 227.811 110.661 227.811 110.553C227.811 110.108 227.696 109.772 227.465 109.546C227.239 109.315 226.904 109.2 226.458 109.2C225.878 109.2 225.413 109.436 225.064 109.909C224.72 110.376 224.487 111.08 224.363 112.02L223.864 115.75H222.599L223.582 108.378H224.806L224.637 109.514C224.986 109.042 225.367 108.69 225.781 108.459C226.195 108.228 226.646 108.112 227.135 108.112C227.629 108.112 228.048 108.236 228.391 108.483C228.735 108.725 228.963 109.063 229.076 109.498C229.447 109.036 229.85 108.69 230.285 108.459C230.725 108.228 231.192 108.112 231.687 108.112C232.315 108.112 232.812 108.306 233.177 108.692C233.548 109.079 233.733 109.605 233.733 110.271C233.733 110.427 233.714 110.674 233.677 111.013C233.671 111.05 233.668 111.077 233.668 111.093L233.056 115.75H231.767L232.363 111.23C232.379 111.117 232.39 111.005 232.396 110.892C232.406 110.779 232.412 110.666 232.412 110.553C232.412 110.108 232.296 109.772 232.065 109.546C231.84 109.315 231.504 109.2 231.058 109.2C230.462 109.2 229.995 109.426 229.656 109.877C229.323 110.328 229.092 111.042 228.963 112.02L228.472 115.75H227.167ZM242.063 110.288C241.682 109.901 241.29 109.619 240.887 109.442C240.49 109.259 240.057 109.168 239.59 109.168C238.731 109.168 238.03 109.469 237.487 110.07C236.945 110.672 236.674 111.453 236.674 112.415C236.674 113.188 236.907 113.811 237.375 114.284C237.847 114.756 238.47 114.993 239.244 114.993C239.62 114.993 239.988 114.917 240.347 114.767C240.707 114.617 241.105 114.367 241.54 114.018L241.338 115.404C241.048 115.618 240.702 115.782 240.299 115.895C239.902 116.008 239.469 116.064 239.002 116.064C237.917 116.064 237.039 115.729 236.367 115.057C235.701 114.38 235.368 113.494 235.368 112.398C235.368 111.142 235.766 110.113 236.561 109.313C237.361 108.512 238.398 108.112 239.671 108.112C240.133 108.112 240.573 108.174 240.992 108.298C241.416 108.421 241.835 108.612 242.249 108.87L242.063 110.288ZM247.099 109.152C246.288 109.152 245.616 109.452 245.085 110.054C244.558 110.65 244.295 111.41 244.295 112.334C244.295 113.145 244.523 113.8 244.98 114.3C245.442 114.794 246.049 115.041 246.801 115.041C247.606 115.041 248.272 114.743 248.799 114.147C249.325 113.551 249.588 112.793 249.588 111.875C249.588 111.08 249.355 110.427 248.887 109.917C248.426 109.407 247.829 109.152 247.099 109.152ZM243.006 112.366C243.006 111.158 243.404 110.148 244.198 109.337C244.993 108.521 245.982 108.112 247.163 108.112C248.232 108.112 249.116 108.451 249.814 109.127C250.512 109.799 250.861 110.637 250.861 111.641C250.861 112.952 250.475 114.018 249.701 114.84C248.933 115.656 247.939 116.064 246.72 116.064C245.598 116.064 244.698 115.726 244.021 115.049C243.344 114.372 243.006 113.478 243.006 112.366ZM258.378 115.75H257.081L258.725 103.262H260.014L258.378 115.75ZM264.558 114.872C265.277 114.872 265.884 114.574 266.378 113.978C266.878 113.381 267.128 112.64 267.128 111.754C267.128 111.007 266.932 110.403 266.54 109.941C266.153 109.479 265.645 109.248 265.017 109.248C264.2 109.248 263.532 109.538 263.011 110.118C262.49 110.698 262.229 111.437 262.229 112.334C262.229 113.091 262.444 113.704 262.874 114.171C263.309 114.638 263.87 114.872 264.558 114.872ZM267.611 108.378H268.876L267.909 115.75H266.62L266.797 114.646C266.443 115.124 266.045 115.479 265.605 115.71C265.17 115.935 264.673 116.048 264.115 116.048C263.169 116.048 262.401 115.704 261.81 115.017C261.219 114.329 260.924 113.435 260.924 112.334C260.924 111.115 261.284 110.108 262.004 109.313C262.723 108.512 263.628 108.112 264.719 108.112C265.374 108.112 265.925 108.257 266.37 108.547C266.816 108.837 267.163 109.275 267.41 109.861L267.611 108.378ZM274.596 109.329C273.876 109.329 273.267 109.627 272.767 110.223C272.268 110.814 272.018 111.55 272.018 112.431C272.018 113.183 272.214 113.79 272.606 114.251C272.998 114.713 273.506 114.944 274.129 114.944C274.951 114.944 275.622 114.654 276.143 114.074C276.664 113.494 276.925 112.756 276.925 111.859C276.925 111.101 276.71 110.492 276.28 110.03C275.85 109.562 275.289 109.329 274.596 109.329ZM271.575 115.75H270.27L271.921 103.262H273.21L272.365 109.53C272.708 109.063 273.1 108.714 273.541 108.483C273.987 108.247 274.481 108.128 275.023 108.128C275.985 108.128 276.758 108.472 277.344 109.16C277.929 109.847 278.222 110.763 278.222 111.907C278.222 112.39 278.138 112.871 277.972 113.349C277.811 113.827 277.577 114.27 277.271 114.678C276.938 115.119 276.524 115.46 276.03 115.702C275.536 115.943 275.007 116.064 274.443 116.064C273.799 116.064 273.251 115.919 272.8 115.629C272.354 115.334 272.007 114.896 271.76 114.316L271.575 115.75ZM283.644 109.152C282.833 109.152 282.161 109.452 281.63 110.054C281.103 110.65 280.84 111.41 280.84 112.334C280.84 113.145 281.068 113.8 281.525 114.3C281.987 114.794 282.594 115.041 283.346 115.041C284.151 115.041 284.817 114.743 285.344 114.147C285.87 113.551 286.133 112.793 286.133 111.875C286.133 111.08 285.9 110.427 285.432 109.917C284.97 109.407 284.374 109.152 283.644 109.152ZM279.551 112.366C279.551 111.158 279.948 110.148 280.743 109.337C281.538 108.521 282.527 108.112 283.708 108.112C284.777 108.112 285.661 108.451 286.359 109.127C287.057 109.799 287.406 110.637 287.406 111.641C287.406 112.952 287.02 114.018 286.246 114.84C285.478 115.656 284.484 116.064 283.265 116.064C282.143 116.064 281.243 115.726 280.566 115.049C279.889 114.372 279.551 113.478 279.551 112.366ZM293.457 109.579C293.317 109.509 293.175 109.455 293.03 109.417C292.885 109.38 292.74 109.361 292.595 109.361C292.031 109.361 291.582 109.597 291.249 110.07C290.922 110.543 290.691 111.276 290.556 112.27L290.089 115.75H288.84L289.807 108.378H291.08L290.879 109.546C291.217 109.047 291.558 108.684 291.902 108.459C292.251 108.228 292.632 108.112 293.046 108.112C293.164 108.112 293.285 108.126 293.408 108.153C293.537 108.179 293.664 108.22 293.787 108.273L293.457 109.579ZM295.519 104.89C295.519 104.653 295.605 104.449 295.777 104.277C295.954 104.105 296.164 104.02 296.406 104.02C296.653 104.02 296.859 104.105 297.026 104.277C297.198 104.444 297.284 104.648 297.284 104.89C297.284 105.142 297.198 105.354 297.026 105.526C296.859 105.698 296.653 105.784 296.406 105.784C296.164 105.784 295.954 105.698 295.777 105.526C295.605 105.349 295.519 105.137 295.519 104.89ZM294.464 115.75L295.439 108.378H296.72L295.745 115.75H294.464ZM297.832 114.678L298.653 113.704C298.922 114.139 299.225 114.466 299.564 114.687C299.907 114.901 300.286 115.009 300.7 115.009C301.162 115.009 301.527 114.904 301.795 114.695C302.069 114.48 302.206 114.192 302.206 113.833C302.206 113.43 301.825 113.054 301.062 112.705C300.869 112.613 300.716 112.538 300.603 112.479C299.899 112.141 299.432 111.826 299.201 111.536C298.97 111.246 298.855 110.881 298.855 110.441C298.855 109.764 299.104 109.208 299.604 108.773C300.104 108.333 300.745 108.112 301.53 108.112C302.024 108.112 302.48 108.204 302.899 108.386C303.318 108.569 303.697 108.84 304.035 109.2L303.262 110.126C303.036 109.826 302.77 109.6 302.464 109.45C302.158 109.294 301.817 109.216 301.441 109.216C301.07 109.216 300.756 109.323 300.498 109.538C300.24 109.748 300.112 109.998 300.112 110.288C300.112 110.685 300.565 111.08 301.473 111.472C301.532 111.493 301.578 111.512 301.61 111.528C302.335 111.84 302.821 112.149 303.068 112.455C303.315 112.761 303.439 113.161 303.439 113.655C303.439 114.402 303.197 114.99 302.714 115.42C302.23 115.849 301.57 116.064 300.732 116.064C300.109 116.064 299.561 115.951 299.088 115.726C298.616 115.5 298.197 115.151 297.832 114.678ZM309.917 115.75L310.883 108.378H312.108L311.939 109.579C312.352 109.079 312.785 108.711 313.236 108.475C313.687 108.233 314.181 108.112 314.718 108.112C315.422 108.112 315.978 108.306 316.386 108.692C316.8 109.079 317.006 109.605 317.006 110.271C317.006 110.39 317.001 110.519 316.99 110.658C316.979 110.798 316.963 110.943 316.942 111.093L316.33 115.75H315.041L315.621 111.23C315.626 111.193 315.631 111.142 315.637 111.077C315.669 110.814 315.685 110.639 315.685 110.553C315.685 110.113 315.551 109.777 315.282 109.546C315.014 109.315 314.622 109.2 314.106 109.2C313.429 109.2 312.884 109.442 312.47 109.925C312.057 110.403 311.788 111.101 311.665 112.02L311.165 115.75H309.917ZM319.963 104.89C319.963 104.653 320.049 104.449 320.221 104.277C320.398 104.105 320.608 104.02 320.849 104.02C321.096 104.02 321.303 104.105 321.47 104.277C321.642 104.444 321.728 104.648 321.728 104.89C321.728 105.142 321.642 105.354 321.47 105.526C321.303 105.698 321.096 105.784 320.849 105.784C320.608 105.784 320.398 105.698 320.221 105.526C320.049 105.349 319.963 105.137 319.963 104.89ZM318.908 115.75L319.883 108.378H321.164L320.189 115.75H318.908ZM322.275 114.678L323.097 113.704C323.366 114.139 323.669 114.466 324.008 114.687C324.351 114.901 324.73 115.009 325.144 115.009C325.605 115.009 325.971 114.904 326.239 114.695C326.513 114.48 326.65 114.192 326.65 113.833C326.65 113.43 326.269 113.054 325.506 112.705C325.313 112.613 325.16 112.538 325.047 112.479C324.343 112.141 323.876 111.826 323.645 111.536C323.414 111.246 323.299 110.881 323.299 110.441C323.299 109.764 323.548 109.208 324.048 108.773C324.547 108.333 325.189 108.112 325.973 108.112C326.468 108.112 326.924 108.204 327.343 108.386C327.762 108.569 328.141 108.84 328.479 109.2L327.706 110.126C327.48 109.826 327.214 109.6 326.908 109.45C326.602 109.294 326.261 109.216 325.885 109.216C325.514 109.216 325.2 109.323 324.942 109.538C324.684 109.748 324.555 109.998 324.555 110.288C324.555 110.685 325.009 111.08 325.917 111.472C325.976 111.493 326.022 111.512 326.054 111.528C326.779 111.84 327.265 112.149 327.512 112.455C327.759 112.761 327.883 113.161 327.883 113.655C327.883 114.402 327.641 114.99 327.158 115.42C326.674 115.849 326.014 116.064 325.176 116.064C324.553 116.064 324.005 115.951 323.532 115.726C323.06 115.5 322.641 115.151 322.275 114.678ZM330.711 104.89C330.711 104.653 330.797 104.449 330.969 104.277C331.146 104.105 331.355 104.02 331.597 104.02C331.844 104.02 332.051 104.105 332.217 104.277C332.389 104.444 332.475 104.648 332.475 104.89C332.475 105.142 332.389 105.354 332.217 105.526C332.051 105.698 331.844 105.784 331.597 105.784C331.355 105.784 331.146 105.698 330.969 105.526C330.797 105.349 330.711 105.137 330.711 104.89ZM329.655 115.75L330.63 108.378H331.911L330.936 115.75H329.655ZM339.243 108.378H340.532L340.105 111.641C340.094 111.727 340.078 111.851 340.056 112.012C339.944 112.833 339.887 113.376 339.887 113.639C339.887 114.037 340.024 114.345 340.298 114.566C340.572 114.786 340.959 114.896 341.458 114.896C342.119 114.896 342.6 114.719 342.9 114.364C343.201 114.01 343.429 113.234 343.585 112.036L344.061 108.378H345.333L344.834 112.125C344.829 112.184 344.818 112.27 344.802 112.382C344.625 113.73 344.302 114.654 343.835 115.154C343.556 115.449 343.207 115.675 342.788 115.831C342.374 115.986 341.907 116.064 341.386 116.064C340.542 116.064 339.866 115.857 339.355 115.444C338.851 115.025 338.598 114.472 338.598 113.784C338.598 113.521 338.66 112.898 338.783 111.915L338.8 111.802L339.243 108.378ZM347.106 115.75L347.936 109.45H346.566L346.711 108.378H348.081L348.459 105.405H349.765L349.37 108.378H350.989L350.852 109.45H349.225L348.395 115.75H347.106ZM22.3105 135.872C23.0303 135.872 23.6372 135.574 24.1313 134.978C24.6309 134.381 24.8806 133.64 24.8806 132.754C24.8806 132.007 24.6846 131.403 24.2925 130.941C23.9058 130.479 23.3982 130.248 22.7698 130.248C21.9534 130.248 21.2847 130.538 20.7637 131.118C20.2427 131.698 19.9822 132.437 19.9822 133.334C19.9822 134.091 20.197 134.704 20.6267 135.171C21.0618 135.638 21.623 135.872 22.3105 135.872ZM25.364 129.378H26.6289L25.6621 136.75H24.373L24.5503 135.646C24.1958 136.124 23.7983 136.479 23.3579 136.71C22.9229 136.935 22.426 137.048 21.8674 137.048C20.9221 137.048 20.1541 136.704 19.5632 136.017C18.9724 135.329 18.677 134.435 18.677 133.334C18.677 132.115 19.0369 131.108 19.7566 130.313C20.4763 129.512 21.3813 129.112 22.4717 129.112C23.127 129.112 23.6775 129.257 24.1233 129.547C24.5691 129.837 24.9155 130.275 25.1626 130.861L25.364 129.378ZM29.4729 136.75H28.1758L29.8193 124.262H31.1084L29.4729 136.75ZM33.2273 125.89C33.2273 125.653 33.3132 125.449 33.4851 125.277C33.6624 125.105 33.8718 125.02 34.1135 125.02C34.3606 125.02 34.5674 125.105 34.7339 125.277C34.9058 125.444 34.9917 125.648 34.9917 125.89C34.9917 126.142 34.9058 126.354 34.7339 126.526C34.5674 126.698 34.3606 126.784 34.1135 126.784C33.8718 126.784 33.6624 126.698 33.4851 126.526C33.3132 126.349 33.2273 126.137 33.2273 125.89ZM32.1719 136.75L33.1467 129.378H34.4277L33.4529 136.75H32.1719ZM39.6323 135.872C40.3521 135.872 40.959 135.574 41.4531 134.978C41.9526 134.381 42.2024 133.64 42.2024 132.754C42.2024 132.007 42.0063 131.403 41.6143 130.941C41.2275 130.479 40.72 130.248 40.0916 130.248C39.2751 130.248 38.6064 130.538 38.0854 131.118C37.5645 131.698 37.304 132.437 37.304 133.334C37.304 134.091 37.5188 134.704 37.9485 135.171C38.3835 135.638 38.9448 135.872 39.6323 135.872ZM42.6858 129.378H43.9507L42.5166 140.343H41.2114L41.8721 135.646C41.5176 136.13 41.1201 136.487 40.6797 136.718C40.2393 136.949 39.7424 137.064 39.1892 137.064C38.2546 137.064 37.4893 136.723 36.8931 136.041C36.2969 135.354 35.9988 134.473 35.9988 133.398C35.9988 132.158 36.356 131.132 37.0703 130.321C37.79 129.504 38.6924 129.096 39.7773 129.096C40.438 129.096 40.9912 129.241 41.437 129.531C41.8882 129.821 42.2373 130.259 42.4844 130.844L42.6858 129.378ZM46.3677 129.378H47.6567L47.2297 132.641C47.219 132.727 47.2029 132.851 47.1814 133.012C47.0686 133.833 47.0122 134.376 47.0122 134.639C47.0122 135.037 47.1492 135.345 47.4231 135.566C47.697 135.786 48.0837 135.896 48.5833 135.896C49.2439 135.896 49.7246 135.719 50.0254 135.364C50.3262 135.01 50.5544 134.234 50.7102 133.036L51.1855 129.378H52.4585L51.959 133.125C51.9536 133.184 51.9429 133.27 51.9268 133.382C51.7495 134.73 51.4272 135.654 50.96 136.154C50.6807 136.449 50.3315 136.675 49.9126 136.831C49.499 136.986 49.0317 137.064 48.5107 137.064C47.6675 137.064 46.9907 136.857 46.4805 136.444C45.9756 136.025 45.7231 135.472 45.7231 134.784C45.7231 134.521 45.7849 133.898 45.9084 132.915L45.9246 132.802L46.3677 129.378ZM55.0286 125.89C55.0286 125.653 55.1145 125.449 55.2864 125.277C55.4636 125.105 55.6731 125.02 55.9148 125.02C56.1619 125.02 56.3687 125.105 56.5352 125.277C56.707 125.444 56.793 125.648 56.793 125.89C56.793 126.142 56.707 126.354 56.5352 126.526C56.3687 126.698 56.1619 126.784 55.9148 126.784C55.6731 126.784 55.4636 126.698 55.2864 126.526C55.1145 126.349 55.0286 126.137 55.0286 125.89ZM53.9731 136.75L54.948 129.378H56.229L55.2542 136.75H53.9731ZM62.1265 130.313C61.4014 130.313 60.7891 130.611 60.2896 131.207C59.7954 131.798 59.5483 132.534 59.5483 133.415C59.5483 134.156 59.7444 134.755 60.1365 135.211C60.5286 135.668 61.0361 135.896 61.6592 135.896C62.481 135.896 63.1523 135.611 63.6733 135.042C64.1943 134.467 64.4548 133.734 64.4548 132.843C64.4548 132.091 64.2373 131.481 63.8022 131.014C63.3726 130.546 62.814 130.313 62.1265 130.313ZM57.3408 140.343L58.7749 129.378H60.064L59.8948 130.53C60.2546 130.047 60.6521 129.69 61.0872 129.459C61.5276 129.228 62.0217 129.112 62.5696 129.112C63.4988 129.112 64.2615 129.459 64.8577 130.152C65.4539 130.839 65.752 131.725 65.752 132.81C65.752 134.008 65.3921 135.012 64.6724 135.823C63.958 136.629 63.0637 137.032 61.9895 137.032C61.3289 137.032 60.7783 136.89 60.3379 136.605C59.8975 136.315 59.5591 135.88 59.3228 135.3L58.6621 140.343H57.3408ZM79.0132 133.278L73.1077 133.286V133.415C73.1077 134.204 73.3091 134.827 73.7119 135.284C74.1147 135.735 74.6653 135.96 75.3635 135.96C75.7986 135.96 76.1987 135.856 76.564 135.646C76.9292 135.437 77.2837 135.112 77.6274 134.671L78.5137 135.396C78.084 135.955 77.6113 136.374 77.0957 136.653C76.5801 136.927 76.0188 137.064 75.4119 137.064C74.3108 137.064 73.4353 136.734 72.7854 136.073C72.1409 135.407 71.8186 134.51 71.8186 133.382C71.8186 132.152 72.1946 131.135 72.9465 130.329C73.6985 129.518 74.6411 129.112 75.7744 129.112C76.8057 129.112 77.606 129.427 78.1753 130.055C78.7446 130.683 79.0293 131.567 79.0293 132.706C79.0293 132.861 79.0266 132.979 79.0212 133.06C79.0212 133.141 79.0186 133.213 79.0132 133.278ZM77.7886 132.23C77.7778 131.564 77.5952 131.051 77.2407 130.691C76.8916 130.332 76.3975 130.152 75.7583 130.152C75.1245 130.152 74.5767 130.34 74.1147 130.716C73.6582 131.092 73.3601 131.596 73.2205 132.23H77.7886ZM79.5852 136.75L82.6387 132.955L80.6406 129.378H82.1311L83.5168 132.117L85.5793 129.378H87.1262L84.0728 133.084L86.103 136.75H84.6206L83.2671 133.946L81.1401 136.75H79.5852ZM99.6221 133.278L93.7166 133.286V133.415C93.7166 134.204 93.918 134.827 94.3208 135.284C94.7236 135.735 95.2742 135.96 95.9724 135.96C96.4075 135.96 96.8076 135.856 97.1729 135.646C97.5381 135.437 97.8926 135.112 98.2363 134.671L99.1226 135.396C98.6929 135.955 98.2202 136.374 97.7046 136.653C97.189 136.927 96.6277 137.064 96.0208 137.064C94.9197 137.064 94.0442 136.734 93.3943 136.073C92.7498 135.407 92.4275 134.51 92.4275 133.382C92.4275 132.152 92.8035 131.135 93.5554 130.329C94.3074 129.518 95.25 129.112 96.3833 129.112C97.4146 129.112 98.2148 129.427 98.7842 130.055C99.3535 130.683 99.6382 131.567 99.6382 132.706C99.6382 132.861 99.6355 132.979 99.6301 133.06C99.6301 133.141 99.6274 133.213 99.6221 133.278ZM98.3975 132.23C98.3867 131.564 98.2041 131.051 97.8496 130.691C97.5005 130.332 97.0063 130.152 96.3672 130.152C95.7334 130.152 95.1855 130.34 94.7236 130.716C94.2671 131.092 93.969 131.596 93.8293 132.23H98.3975ZM104.537 135.872C105.256 135.872 105.863 135.574 106.357 134.978C106.857 134.381 107.107 133.64 107.107 132.754C107.107 132.007 106.911 131.403 106.519 130.941C106.132 130.479 105.624 130.248 104.996 130.248C104.179 130.248 103.511 130.538 102.99 131.118C102.469 131.698 102.208 132.437 102.208 133.334C102.208 134.091 102.423 134.704 102.853 135.171C103.288 135.638 103.849 135.872 104.537 135.872ZM107.59 129.378H108.855L107.888 136.75H106.599L106.776 135.646C106.422 136.124 106.024 136.479 105.584 136.71C105.149 136.935 104.652 137.048 104.094 137.048C103.148 137.048 102.38 136.704 101.789 136.017C101.198 135.329 100.903 134.435 100.903 133.334C100.903 132.115 101.263 131.108 101.983 130.313C102.702 129.512 103.607 129.112 104.698 129.112C105.353 129.112 105.904 129.257 106.349 129.547C106.795 129.837 107.142 130.275 107.389 130.861L107.59 129.378ZM121.617 131.288C121.235 130.901 120.843 130.619 120.44 130.442C120.043 130.259 119.611 130.168 119.143 130.168C118.284 130.168 117.583 130.469 117.041 131.07C116.498 131.672 116.227 132.453 116.227 133.415C116.227 134.188 116.46 134.811 116.928 135.284C117.4 135.756 118.023 135.993 118.797 135.993C119.173 135.993 119.541 135.917 119.901 135.767C120.26 135.617 120.658 135.367 121.093 135.018L120.892 136.404C120.602 136.618 120.255 136.782 119.852 136.895C119.455 137.008 119.022 137.064 118.555 137.064C117.47 137.064 116.592 136.729 115.921 136.057C115.255 135.38 114.922 134.494 114.922 133.398C114.922 132.142 115.319 131.113 116.114 130.313C116.914 129.512 117.951 129.112 119.224 129.112C119.686 129.112 120.126 129.174 120.545 129.298C120.969 129.421 121.388 129.612 121.802 129.87L121.617 131.288ZM126.652 130.152C125.841 130.152 125.17 130.452 124.638 131.054C124.112 131.65 123.848 132.41 123.848 133.334C123.848 134.145 124.077 134.8 124.533 135.3C124.995 135.794 125.602 136.041 126.354 136.041C127.16 136.041 127.826 135.743 128.352 135.147C128.878 134.551 129.142 133.793 129.142 132.875C129.142 132.08 128.908 131.427 128.441 130.917C127.979 130.407 127.383 130.152 126.652 130.152ZM122.559 133.366C122.559 132.158 122.957 131.148 123.752 130.337C124.547 129.521 125.535 129.112 126.717 129.112C127.785 129.112 128.669 129.451 129.367 130.127C130.065 130.799 130.415 131.637 130.415 132.641C130.415 133.952 130.028 135.018 129.254 135.84C128.486 136.656 127.493 137.064 126.273 137.064C125.151 137.064 124.251 136.726 123.574 136.049C122.898 135.372 122.559 134.478 122.559 133.366ZM136.417 136.75L137.013 132.222C137.029 132.109 137.04 131.997 137.045 131.884C137.056 131.771 137.061 131.661 137.061 131.553C137.061 131.108 136.946 130.772 136.715 130.546C136.489 130.315 136.154 130.2 135.708 130.2C135.128 130.2 134.663 130.436 134.314 130.909C133.97 131.376 133.737 132.08 133.613 133.02L133.114 136.75H131.849L132.832 129.378H134.056L133.887 130.514C134.236 130.042 134.617 129.69 135.031 129.459C135.445 129.228 135.896 129.112 136.385 129.112C136.879 129.112 137.298 129.236 137.641 129.483C137.985 129.725 138.213 130.063 138.326 130.498C138.697 130.036 139.1 129.69 139.535 129.459C139.975 129.228 140.442 129.112 140.937 129.112C141.565 129.112 142.062 129.306 142.427 129.692C142.798 130.079 142.983 130.605 142.983 131.271C142.983 131.427 142.964 131.674 142.927 132.013C142.921 132.05 142.918 132.077 142.918 132.093L142.306 136.75H141.017L141.613 132.23C141.629 132.117 141.64 132.005 141.646 131.892C141.656 131.779 141.662 131.666 141.662 131.553C141.662 131.108 141.546 130.772 141.315 130.546C141.09 130.315 140.754 130.2 140.308 130.2C139.712 130.2 139.245 130.426 138.906 130.877C138.573 131.328 138.342 132.042 138.213 133.02L137.722 136.75H136.417ZM149.388 136.75L149.984 132.222C150 132.109 150.011 131.997 150.016 131.884C150.027 131.771 150.032 131.661 150.032 131.553C150.032 131.108 149.917 130.772 149.686 130.546C149.46 130.315 149.125 130.2 148.679 130.2C148.099 130.2 147.634 130.436 147.285 130.909C146.941 131.376 146.708 132.08 146.584 133.02L146.085 136.75H144.82L145.803 129.378H147.027L146.858 130.514C147.207 130.042 147.589 129.69 148.002 129.459C148.416 129.228 148.867 129.112 149.356 129.112C149.85 129.112 150.269 129.236 150.613 129.483C150.956 129.725 151.185 130.063 151.297 130.498C151.668 130.036 152.071 129.69 152.506 129.459C152.946 129.228 153.414 129.112 153.908 129.112C154.536 129.112 155.033 129.306 155.398 129.692C155.769 130.079 155.954 130.605 155.954 131.271C155.954 131.427 155.935 131.674 155.898 132.013C155.892 132.05 155.89 132.077 155.89 132.093L155.277 136.75H153.988L154.584 132.23C154.601 132.117 154.611 132.005 154.617 131.892C154.627 131.779 154.633 131.666 154.633 131.553C154.633 131.108 154.517 130.772 154.286 130.546C154.061 130.315 153.725 130.2 153.279 130.2C152.683 130.2 152.216 130.426 151.877 130.877C151.544 131.328 151.313 132.042 151.185 133.02L150.693 136.75H149.388ZM161.682 130.152C160.871 130.152 160.2 130.452 159.668 131.054C159.142 131.65 158.879 132.41 158.879 133.334C158.879 134.145 159.107 134.8 159.563 135.3C160.025 135.794 160.632 136.041 161.384 136.041C162.19 136.041 162.856 135.743 163.382 135.147C163.909 134.551 164.172 133.793 164.172 132.875C164.172 132.08 163.938 131.427 163.471 130.917C163.009 130.407 162.413 130.152 161.682 130.152ZM157.59 133.366C157.59 132.158 157.987 131.148 158.782 130.337C159.577 129.521 160.565 129.112 161.747 129.112C162.816 129.112 163.699 129.451 164.397 130.127C165.096 130.799 165.445 131.637 165.445 132.641C165.445 133.952 165.058 135.018 164.285 135.84C163.517 136.656 162.523 137.064 161.304 137.064C160.181 137.064 159.281 136.726 158.605 136.049C157.928 135.372 157.59 134.478 157.59 133.366ZM170.375 135.872C171.09 135.872 171.697 135.574 172.196 134.978C172.696 134.381 172.946 133.64 172.946 132.754C172.946 132.007 172.75 131.403 172.357 130.941C171.971 130.479 171.463 130.248 170.835 130.248C170.018 130.248 169.352 130.538 168.837 131.118C168.321 131.693 168.063 132.432 168.063 133.334C168.063 134.091 168.275 134.704 168.7 135.171C169.129 135.638 169.688 135.872 170.375 135.872ZM174.09 124.262H175.371L173.719 136.75H172.438L172.615 135.646C172.261 136.124 171.863 136.479 171.423 136.71C170.988 136.935 170.488 137.048 169.924 137.048C168.984 137.048 168.219 136.704 167.628 136.017C167.037 135.329 166.742 134.435 166.742 133.334C166.742 132.115 167.102 131.108 167.822 130.313C168.541 129.512 169.446 129.112 170.537 129.112C171.192 129.112 171.742 129.257 172.188 129.547C172.634 129.837 172.98 130.275 173.228 130.861L174.09 124.262ZM180.132 130.152C179.321 130.152 178.65 130.452 178.118 131.054C177.592 131.65 177.328 132.41 177.328 133.334C177.328 134.145 177.557 134.8 178.013 135.3C178.475 135.794 179.082 136.041 179.834 136.041C180.64 136.041 181.306 135.743 181.832 135.147C182.358 134.551 182.622 133.793 182.622 132.875C182.622 132.08 182.388 131.427 181.921 130.917C181.459 130.407 180.863 130.152 180.132 130.152ZM176.039 133.366C176.039 132.158 176.437 131.148 177.232 130.337C178.027 129.521 179.015 129.112 180.197 129.112C181.265 129.112 182.149 129.451 182.847 130.127C183.545 130.799 183.895 131.637 183.895 132.641C183.895 133.952 183.508 135.018 182.734 135.84C181.966 136.656 180.973 137.064 179.753 137.064C178.631 137.064 177.731 136.726 177.054 136.049C176.378 135.372 176.039 134.478 176.039 133.366ZM196.576 131.288C196.194 130.901 195.802 130.619 195.399 130.442C195.002 130.259 194.57 130.168 194.102 130.168C193.243 130.168 192.542 130.469 192 131.07C191.457 131.672 191.186 132.453 191.186 133.415C191.186 134.188 191.419 134.811 191.887 135.284C192.359 135.756 192.982 135.993 193.756 135.993C194.132 135.993 194.5 135.917 194.86 135.767C195.219 135.617 195.617 135.367 196.052 135.018L195.851 136.404C195.561 136.618 195.214 136.782 194.811 136.895C194.414 137.008 193.981 137.064 193.514 137.064C192.429 137.064 191.551 136.729 190.88 136.057C190.214 135.38 189.881 134.494 189.881 133.398C189.881 132.142 190.278 131.113 191.073 130.313C191.873 129.512 192.91 129.112 194.183 129.112C194.645 129.112 195.085 129.174 195.504 129.298C195.928 129.421 196.347 129.612 196.761 129.87L196.576 131.288ZM201.611 130.152C200.8 130.152 200.129 130.452 199.597 131.054C199.071 131.65 198.807 132.41 198.807 133.334C198.807 134.145 199.036 134.8 199.492 135.3C199.954 135.794 200.561 136.041 201.313 136.041C202.119 136.041 202.785 135.743 203.311 135.147C203.837 134.551 204.101 133.793 204.101 132.875C204.101 132.08 203.867 131.427 203.4 130.917C202.938 130.407 202.342 130.152 201.611 130.152ZM197.518 133.366C197.518 132.158 197.916 131.148 198.711 130.337C199.506 129.521 200.494 129.112 201.676 129.112C202.744 129.112 203.628 129.451 204.326 130.127C205.024 130.799 205.374 131.637 205.374 132.641C205.374 133.952 204.987 135.018 204.213 135.84C203.445 136.656 202.452 137.064 201.232 137.064C200.11 137.064 199.21 136.726 198.533 136.049C197.857 135.372 197.518 134.478 197.518 133.366ZM206.808 136.75L207.774 129.378H208.999L208.83 130.579C209.243 130.079 209.676 129.711 210.127 129.475C210.578 129.233 211.072 129.112 211.609 129.112C212.313 129.112 212.869 129.306 213.277 129.692C213.691 130.079 213.897 130.605 213.897 131.271C213.897 131.39 213.892 131.519 213.881 131.658C213.871 131.798 213.854 131.943 213.833 132.093L213.221 136.75H211.932L212.512 132.23C212.517 132.193 212.522 132.142 212.528 132.077C212.56 131.814 212.576 131.639 212.576 131.553C212.576 131.113 212.442 130.777 212.173 130.546C211.905 130.315 211.513 130.2 210.997 130.2C210.32 130.2 209.775 130.442 209.362 130.925C208.948 131.403 208.679 132.101 208.556 133.02L208.056 136.75H206.808ZM215.187 135.678L216.008 134.704C216.277 135.139 216.58 135.466 216.919 135.687C217.262 135.901 217.641 136.009 218.055 136.009C218.517 136.009 218.882 135.904 219.15 135.695C219.424 135.48 219.561 135.192 219.561 134.833C219.561 134.43 219.18 134.054 218.417 133.705C218.224 133.613 218.071 133.538 217.958 133.479C217.254 133.141 216.787 132.826 216.556 132.536C216.325 132.246 216.21 131.881 216.21 131.441C216.21 130.764 216.459 130.208 216.959 129.773C217.458 129.333 218.1 129.112 218.885 129.112C219.379 129.112 219.835 129.204 220.254 129.386C220.673 129.569 221.052 129.84 221.39 130.2L220.617 131.126C220.391 130.826 220.125 130.6 219.819 130.45C219.513 130.294 219.172 130.216 218.796 130.216C218.425 130.216 218.111 130.323 217.853 130.538C217.595 130.748 217.467 130.998 217.467 131.288C217.467 131.685 217.92 132.08 218.828 132.472C218.887 132.493 218.933 132.512 218.965 132.528C219.69 132.84 220.176 133.149 220.423 133.455C220.67 133.761 220.794 134.161 220.794 134.655C220.794 135.402 220.552 135.99 220.069 136.42C219.585 136.849 218.925 137.064 218.087 137.064C217.464 137.064 216.916 136.951 216.443 136.726C215.971 136.5 215.552 136.151 215.187 135.678ZM229.511 133.278L223.606 133.286V133.415C223.606 134.204 223.807 134.827 224.21 135.284C224.613 135.735 225.163 135.96 225.862 135.96C226.297 135.96 226.697 135.856 227.062 135.646C227.427 135.437 227.782 135.112 228.125 134.671L229.012 135.396C228.582 135.955 228.109 136.374 227.594 136.653C227.078 136.927 226.517 137.064 225.91 137.064C224.809 137.064 223.933 136.734 223.283 136.073C222.639 135.407 222.317 134.51 222.317 133.382C222.317 132.152 222.693 131.135 223.445 130.329C224.197 129.518 225.139 129.112 226.272 129.112C227.304 129.112 228.104 129.427 228.673 130.055C229.243 130.683 229.527 131.567 229.527 132.706C229.527 132.861 229.525 132.979 229.519 133.06C229.519 133.141 229.517 133.213 229.511 133.278ZM228.287 132.23C228.276 131.564 228.093 131.051 227.739 130.691C227.39 130.332 226.896 130.152 226.256 130.152C225.623 130.152 225.075 130.34 224.613 130.716C224.156 131.092 223.858 131.596 223.719 132.23H228.287ZM234.426 135.872C235.146 135.872 235.752 135.574 236.247 134.978C236.746 134.381 236.996 133.64 236.996 132.754C236.996 132.007 236.8 131.403 236.408 130.941C236.021 130.479 235.513 130.248 234.885 130.248C234.069 130.248 233.4 130.538 232.879 131.118C232.358 131.698 232.097 132.437 232.097 133.334C232.097 134.091 232.312 134.704 232.742 135.171C233.177 135.638 233.738 135.872 234.426 135.872ZM237.479 129.378H238.744L237.31 140.343H236.005L236.666 135.646C236.311 136.13 235.914 136.487 235.473 136.718C235.033 136.949 234.536 137.064 233.983 137.064C233.048 137.064 232.283 136.723 231.687 136.041C231.09 135.354 230.792 134.473 230.792 133.398C230.792 132.158 231.149 131.132 231.864 130.321C232.583 129.504 233.486 129.096 234.571 129.096C235.231 129.096 235.785 129.241 236.23 129.531C236.682 129.821 237.031 130.259 237.278 130.844L237.479 129.378ZM241.161 129.378H242.45L242.023 132.641C242.012 132.727 241.996 132.851 241.975 133.012C241.862 133.833 241.806 134.376 241.806 134.639C241.806 135.037 241.943 135.345 242.217 135.566C242.49 135.786 242.877 135.896 243.377 135.896C244.037 135.896 244.518 135.719 244.819 135.364C245.12 135.01 245.348 134.234 245.504 133.036L245.979 129.378H247.252L246.752 133.125C246.747 133.184 246.736 133.27 246.72 133.382C246.543 134.73 246.221 135.654 245.753 136.154C245.474 136.449 245.125 136.675 244.706 136.831C244.292 136.986 243.825 137.064 243.304 137.064C242.461 137.064 241.784 136.857 241.274 136.444C240.769 136.025 240.517 135.472 240.517 134.784C240.517 134.521 240.578 133.898 240.702 132.915L240.718 132.802L241.161 129.378ZM252.247 135.872C252.967 135.872 253.574 135.574 254.068 134.978C254.567 134.381 254.817 133.64 254.817 132.754C254.817 132.007 254.621 131.403 254.229 130.941C253.842 130.479 253.335 130.248 252.706 130.248C251.89 130.248 251.221 130.538 250.7 131.118C250.179 131.698 249.919 132.437 249.919 133.334C249.919 134.091 250.134 134.704 250.563 135.171C250.998 135.638 251.56 135.872 252.247 135.872ZM255.301 129.378H256.565L255.599 136.75H254.31L254.487 135.646C254.132 136.124 253.735 136.479 253.294 136.71C252.859 136.935 252.363 137.048 251.804 137.048C250.859 137.048 250.091 136.704 249.5 136.017C248.909 135.329 248.614 134.435 248.614 133.334C248.614 132.115 248.973 131.108 249.693 130.313C250.413 129.512 251.318 129.112 252.408 129.112C253.063 129.112 253.614 129.257 254.06 129.547C254.506 129.837 254.852 130.275 255.099 130.861L255.301 129.378ZM258.386 136.75L259.216 130.45H257.846L257.991 129.378H259.361L259.74 126.405H261.045L260.65 129.378H262.27L262.133 130.45H260.505L259.675 136.75H258.386ZM263.043 135.993C263.043 135.735 263.132 135.517 263.309 135.34C263.491 135.157 263.712 135.066 263.969 135.066C264.227 135.066 264.445 135.157 264.622 135.34C264.805 135.517 264.896 135.735 264.896 135.993C264.896 136.25 264.805 136.468 264.622 136.645C264.445 136.823 264.227 136.911 263.969 136.911C263.706 136.911 263.486 136.823 263.309 136.645C263.132 136.468 263.043 136.25 263.043 135.993ZM274 135.461H274.765C275.969 135.461 276.806 135.429 277.279 135.364C277.757 135.294 278.168 135.179 278.512 135.018C279.317 134.631 279.94 134.048 280.381 133.27C280.827 132.485 281.05 131.567 281.05 130.514C281.05 129.628 280.872 128.852 280.518 128.186C280.163 127.514 279.664 127.01 279.019 126.671C278.724 126.51 278.356 126.395 277.916 126.325C277.48 126.255 276.857 126.22 276.046 126.22H275.225L274 135.461ZM272.421 136.75L273.968 124.955H275.555C276.887 124.955 277.819 124.995 278.351 125.076C278.882 125.156 279.336 125.291 279.712 125.479C280.588 125.919 281.267 126.574 281.75 127.445C282.239 128.315 282.484 129.311 282.484 130.434C282.484 131.492 282.28 132.475 281.871 133.382C281.463 134.285 280.896 135.012 280.171 135.566C279.613 135.99 278.966 136.293 278.23 136.476C277.499 136.659 276.304 136.75 274.645 136.75H272.421ZM284.748 129.378H286.037L285.61 132.641C285.599 132.727 285.583 132.851 285.561 133.012C285.448 133.833 285.392 134.376 285.392 134.639C285.392 135.037 285.529 135.345 285.803 135.566C286.077 135.786 286.464 135.896 286.963 135.896C287.624 135.896 288.104 135.719 288.405 135.364C288.706 135.01 288.934 134.234 289.09 133.036L289.565 129.378H290.838L290.339 133.125C290.333 133.184 290.323 133.27 290.307 133.382C290.129 134.73 289.807 135.654 289.34 136.154C289.061 136.449 288.711 136.675 288.292 136.831C287.879 136.986 287.412 137.064 286.891 137.064C286.047 137.064 285.371 136.857 284.86 136.444C284.355 136.025 284.103 135.472 284.103 134.784C284.103 134.521 284.165 133.898 284.288 132.915L284.304 132.802L284.748 129.378ZM293.408 125.89C293.408 125.653 293.494 125.449 293.666 125.277C293.844 125.105 294.053 125.02 294.295 125.02C294.542 125.02 294.749 125.105 294.915 125.277C295.087 125.444 295.173 125.648 295.173 125.89C295.173 126.142 295.087 126.354 294.915 126.526C294.749 126.698 294.542 126.784 294.295 126.784C294.053 126.784 293.844 126.698 293.666 126.526C293.494 126.349 293.408 126.137 293.408 125.89ZM292.353 136.75L293.328 129.378H294.609L293.634 136.75H292.353ZM295.721 135.678L296.542 134.704C296.811 135.139 297.115 135.466 297.453 135.687C297.797 135.901 298.175 136.009 298.589 136.009C299.051 136.009 299.416 135.904 299.685 135.695C299.958 135.48 300.095 135.192 300.095 134.833C300.095 134.43 299.714 134.054 298.951 133.705C298.758 133.613 298.605 133.538 298.492 133.479C297.789 133.141 297.321 132.826 297.09 132.536C296.859 132.246 296.744 131.881 296.744 131.441C296.744 130.764 296.994 130.208 297.493 129.773C297.993 129.333 298.635 129.112 299.419 129.112C299.913 129.112 300.369 129.204 300.788 129.386C301.207 129.569 301.586 129.84 301.924 130.2L301.151 131.126C300.925 130.826 300.659 130.6 300.353 130.45C300.047 130.294 299.706 130.216 299.33 130.216C298.959 130.216 298.645 130.323 298.387 130.538C298.13 130.748 298.001 130.998 298.001 131.288C298.001 131.685 298.455 132.08 299.362 132.472C299.421 132.493 299.467 132.512 299.499 132.528C300.224 132.84 300.71 133.149 300.958 133.455C301.205 133.761 301.328 134.161 301.328 134.655C301.328 135.402 301.086 135.99 300.603 136.42C300.12 136.849 299.459 137.064 298.621 137.064C297.998 137.064 297.45 136.951 296.978 136.726C296.505 136.5 296.086 136.151 295.721 135.678ZM311.334 135.872C312.054 135.872 312.661 135.574 313.155 134.978C313.655 134.381 313.905 133.64 313.905 132.754C313.905 132.007 313.708 131.403 313.316 130.941C312.93 130.479 312.422 130.248 311.794 130.248C310.977 130.248 310.309 130.538 309.788 131.118C309.267 131.698 309.006 132.437 309.006 133.334C309.006 134.091 309.221 134.704 309.651 135.171C310.086 135.638 310.647 135.872 311.334 135.872ZM314.388 129.378H315.653L314.686 136.75H313.397L313.574 135.646C313.22 136.124 312.822 136.479 312.382 136.71C311.947 136.935 311.45 137.048 310.891 137.048C309.946 137.048 309.178 136.704 308.587 136.017C307.996 135.329 307.701 134.435 307.701 133.334C307.701 132.115 308.061 131.108 308.781 130.313C309.5 129.512 310.405 129.112 311.496 129.112C312.151 129.112 312.701 129.257 313.147 129.547C313.593 129.837 313.939 130.275 314.187 130.861L314.388 129.378ZM318.07 129.378H319.359L318.932 132.641C318.921 132.727 318.905 132.851 318.884 133.012C318.771 133.833 318.714 134.376 318.714 134.639C318.714 135.037 318.851 135.345 319.125 135.566C319.399 135.786 319.786 135.896 320.285 135.896C320.946 135.896 321.427 135.719 321.728 135.364C322.028 135.01 322.257 134.234 322.412 133.036L322.888 129.378H324.161L323.661 133.125C323.656 133.184 323.645 133.27 323.629 133.382C323.452 134.73 323.129 135.654 322.662 136.154C322.383 136.449 322.034 136.675 321.615 136.831C321.201 136.986 320.734 137.064 320.213 137.064C319.37 137.064 318.693 136.857 318.183 136.444C317.678 136.025 317.425 135.472 317.425 134.784C317.425 134.521 317.487 133.898 317.611 132.915L317.627 132.802L318.07 129.378ZM325.933 136.75L326.763 130.45H325.393L325.538 129.378H326.908L327.287 126.405H328.592L328.197 129.378H329.816L329.679 130.45H328.052L327.222 136.75H325.933ZM337.357 133.278L331.452 133.286V133.415C331.452 134.204 331.653 134.827 332.056 135.284C332.459 135.735 333.01 135.96 333.708 135.96C334.143 135.96 334.543 135.856 334.908 135.646C335.273 135.437 335.628 135.112 335.972 134.671L336.858 135.396C336.428 135.955 335.956 136.374 335.44 136.653C334.924 136.927 334.363 137.064 333.756 137.064C332.655 137.064 331.78 136.734 331.13 136.073C330.485 135.407 330.163 134.51 330.163 133.382C330.163 132.152 330.539 131.135 331.291 130.329C332.043 129.518 332.985 129.112 334.119 129.112C335.15 129.112 335.95 129.427 336.52 130.055C337.089 130.683 337.374 131.567 337.374 132.706C337.374 132.861 337.371 132.979 337.365 133.06C337.365 133.141 337.363 133.213 337.357 133.278ZM336.133 132.23C336.122 131.564 335.939 131.051 335.585 130.691C335.236 130.332 334.742 130.152 334.103 130.152C333.469 130.152 332.921 130.34 332.459 130.716C332.002 131.092 331.704 131.596 331.565 132.23H336.133Z" fill="#F5F2F2"/>
</svg>
