<svg width="30" height="30" viewBox="0 0 30 30" fill="none" xmlns="http://www.w3.org/2000/svg">
<path d="M15.284 0.513672H15.218C7.22807 0.513672 0.750977 6.99266 0.750977 14.9849V15.051C0.750977 23.0432 7.22807 29.5222 15.218 29.5222H15.284C23.2739 29.5222 29.751 23.0432 29.751 15.051V14.9849C29.751 6.99266 23.2739 0.513672 15.284 0.513672Z" fill="#F5F2F2"/>
<path d="M7.66771 10.1558C7.28569 9.80112 7.0957 9.36208 7.0957 8.8397C7.0957 8.31731 7.2867 7.85896 7.66771 7.50325C8.04972 7.14856 8.54148 6.9707 9.14397 6.9707C9.74647 6.9707 10.2189 7.14856 10.5999 7.50325C10.9819 7.85794 11.1719 8.3041 11.1719 8.8397C11.1719 9.37529 10.9809 9.80112 10.5999 10.1558C10.2179 10.5105 9.73326 10.6884 9.14397 10.6884C8.55468 10.6884 8.04972 10.5105 7.66771 10.1558ZM10.8509 12.1905V23.065H7.41574V12.1905H10.8509Z" fill="#242424"/>
<path d="M22.2859 13.2645C23.0347 14.0775 23.4086 15.1935 23.4086 16.6143V22.8727H20.1462V17.0553C20.1462 16.3388 19.9603 15.7819 19.5895 15.3855C19.2186 14.9892 18.7187 14.79 18.0929 14.79C17.467 14.79 16.9671 14.9882 16.5963 15.3855C16.2254 15.7819 16.0395 16.3388 16.0395 17.0553V22.8727H12.7578V12.1598H16.0395V13.5806C16.3717 13.107 16.8198 12.733 17.3827 12.4575C17.9456 12.1821 18.5785 12.0449 19.2826 12.0449C20.5364 12.0449 21.5382 12.4514 22.2859 13.2635V13.2645Z" fill="#242424"/>
</svg>
